<svg width="296" height="260" viewBox="0 0 296 260" fill="none" xmlns="http://www.w3.org/2000/svg">
<path d="M0 12C0 5.37258 5.37258 0 12 0H283.5C290.127 0 295.5 5.37258 295.5 12V248C295.5 254.627 290.127 260 283.5 260H12C5.37258 260 0 254.627 0 248V12Z" fill="white"/>
<path opacity="0.5" d="M162.818 170.209V178.65H161.796V170.209H162.818ZM165.708 174.842V178.65H164.736V172.319H165.675V173.308H165.758C165.906 172.987 166.132 172.729 166.434 172.533C166.736 172.336 167.126 172.237 167.605 172.237C168.033 172.237 168.408 172.325 168.73 172.5C169.051 172.674 169.301 172.937 169.48 173.292C169.659 173.644 169.748 174.089 169.748 174.627V178.65H168.775V174.693C168.775 174.196 168.646 173.808 168.388 173.531C168.129 173.251 167.775 173.11 167.324 173.11C167.014 173.11 166.736 173.178 166.492 173.312C166.25 173.447 166.059 173.644 165.919 173.902C165.779 174.16 165.708 174.473 165.708 174.842ZM172.498 174.842V178.65H171.526V172.319H172.465V173.308H172.548C172.696 172.987 172.922 172.729 173.224 172.533C173.526 172.336 173.916 172.237 174.394 172.237C174.823 172.237 175.198 172.325 175.52 172.5C175.841 172.674 176.091 172.937 176.27 173.292C176.449 173.644 176.538 174.089 176.538 174.627V178.65H175.565V174.693C175.565 174.196 175.436 173.808 175.178 173.531C174.919 173.251 174.565 173.11 174.114 173.11C173.804 173.11 173.526 173.178 173.282 173.312C173.04 173.447 172.849 173.644 172.709 173.902C172.568 174.16 172.498 174.473 172.498 174.842ZM180.888 178.782C180.316 178.782 179.814 178.646 179.383 178.374C178.954 178.102 178.619 177.722 178.377 177.232C178.138 176.743 178.019 176.172 178.019 175.518C178.019 174.858 178.138 174.282 178.377 173.791C178.619 173.299 178.954 172.917 179.383 172.645C179.814 172.373 180.316 172.237 180.888 172.237C181.459 172.237 181.959 172.373 182.388 172.645C182.819 172.917 183.155 173.299 183.394 173.791C183.636 174.282 183.756 174.858 183.756 175.518C183.756 176.172 183.636 176.743 183.394 177.232C183.155 177.722 182.819 178.102 182.388 178.374C181.959 178.646 181.459 178.782 180.888 178.782ZM180.888 177.908C181.322 177.908 181.679 177.797 181.959 177.575C182.24 177.352 182.447 177.059 182.582 176.697C182.716 176.334 182.784 175.941 182.784 175.518C182.784 175.095 182.716 174.7 182.582 174.335C182.447 173.969 182.24 173.674 181.959 173.448C181.679 173.223 181.322 173.11 180.888 173.11C180.453 173.11 180.096 173.223 179.816 173.448C179.536 173.674 179.328 173.969 179.193 174.335C179.059 174.7 178.991 175.095 178.991 175.518C178.991 175.941 179.059 176.334 179.193 176.697C179.328 177.059 179.536 177.352 179.816 177.575C180.096 177.797 180.453 177.908 180.888 177.908ZM190.192 172.319L187.851 178.65H186.861L184.52 172.319H185.575L187.323 177.364H187.389L189.137 172.319H190.192ZM193.146 178.799C192.745 178.799 192.381 178.723 192.054 178.572C191.727 178.418 191.467 178.197 191.275 177.908C191.083 177.617 190.986 177.265 190.986 176.853C190.986 176.49 191.058 176.196 191.201 175.971C191.344 175.743 191.535 175.564 191.774 175.435C192.013 175.306 192.277 175.21 192.565 175.147C192.856 175.081 193.149 175.029 193.443 174.99C193.828 174.941 194.14 174.904 194.379 174.879C194.621 174.851 194.796 174.806 194.906 174.743C195.019 174.68 195.075 174.57 195.075 174.413V174.38C195.075 173.973 194.964 173.657 194.741 173.432C194.522 173.207 194.188 173.094 193.74 173.094C193.275 173.094 192.911 173.196 192.647 173.399C192.384 173.602 192.198 173.819 192.091 174.05L191.168 173.721C191.333 173.336 191.552 173.036 191.827 172.822C192.105 172.605 192.407 172.454 192.734 172.369C193.064 172.281 193.388 172.237 193.707 172.237C193.91 172.237 194.144 172.261 194.408 172.311C194.674 172.358 194.931 172.455 195.178 172.603C195.428 172.752 195.636 172.976 195.801 173.275C195.966 173.575 196.048 173.976 196.048 174.479V178.65H195.075V177.793H195.026C194.96 177.93 194.85 178.077 194.696 178.234C194.542 178.391 194.337 178.524 194.082 178.634C193.826 178.744 193.514 178.799 193.146 178.799ZM193.295 177.925C193.679 177.925 194.004 177.849 194.267 177.698C194.534 177.547 194.735 177.352 194.869 177.113C195.007 176.874 195.075 176.622 195.075 176.359V175.468C195.034 175.518 194.943 175.563 194.803 175.604C194.666 175.643 194.506 175.677 194.325 175.707C194.147 175.735 193.972 175.76 193.802 175.782C193.634 175.801 193.498 175.817 193.394 175.831C193.141 175.864 192.904 175.918 192.685 175.992C192.468 176.063 192.292 176.172 192.157 176.317C192.025 176.46 191.959 176.655 191.959 176.903C191.959 177.241 192.084 177.496 192.334 177.669C192.587 177.84 192.907 177.925 193.295 177.925ZM200.577 172.319V173.143H197.296V172.319H200.577ZM198.252 170.802H199.225V176.837C199.225 177.112 199.265 177.318 199.345 177.455C199.427 177.59 199.532 177.68 199.658 177.727C199.787 177.771 199.923 177.793 200.066 177.793C200.173 177.793 200.261 177.788 200.33 177.777C200.398 177.763 200.453 177.752 200.495 177.744L200.693 178.617C200.627 178.642 200.535 178.667 200.416 178.692C200.298 178.719 200.148 178.733 199.967 178.733C199.692 178.733 199.423 178.674 199.159 178.556C198.898 178.437 198.681 178.257 198.508 178.016C198.338 177.774 198.252 177.469 198.252 177.101V170.802ZM202.04 178.65V172.319H203.013V178.65H202.04ZM202.535 171.264C202.345 171.264 202.182 171.199 202.045 171.07C201.91 170.941 201.843 170.786 201.843 170.604C201.843 170.423 201.91 170.268 202.045 170.139C202.182 170.009 202.345 169.945 202.535 169.945C202.725 169.945 202.887 170.009 203.021 170.139C203.159 170.268 203.228 170.423 203.228 170.604C203.228 170.786 203.159 170.941 203.021 171.07C202.887 171.199 202.725 171.264 202.535 171.264ZM207.367 178.782C206.795 178.782 206.294 178.646 205.862 178.374C205.434 178.102 205.099 177.722 204.857 177.232C204.618 176.743 204.498 176.172 204.498 175.518C204.498 174.858 204.618 174.282 204.857 173.791C205.099 173.299 205.434 172.917 205.862 172.645C206.294 172.373 206.795 172.237 207.367 172.237C207.939 172.237 208.439 172.373 208.867 172.645C209.299 172.917 209.634 173.299 209.873 173.791C210.115 174.282 210.236 174.858 210.236 175.518C210.236 176.172 210.115 176.743 209.873 177.232C209.634 177.722 209.299 178.102 208.867 178.374C208.439 178.646 207.939 178.782 207.367 178.782ZM207.367 177.908C207.801 177.908 208.158 177.797 208.439 177.575C208.719 177.352 208.926 177.059 209.061 176.697C209.196 176.334 209.263 175.941 209.263 175.518C209.263 175.095 209.196 174.7 209.061 174.335C208.926 173.969 208.719 173.674 208.439 173.448C208.158 173.223 207.801 173.11 207.367 173.11C206.933 173.11 206.576 173.223 206.295 173.448C206.015 173.674 205.808 173.969 205.673 174.335C205.538 174.7 205.471 175.095 205.471 175.518C205.471 175.941 205.538 176.334 205.673 176.697C205.808 177.059 206.015 177.352 206.295 177.575C206.576 177.797 206.933 177.908 207.367 177.908ZM212.694 174.842V178.65H211.721V172.319H212.661V173.308H212.743C212.891 172.987 213.117 172.729 213.419 172.533C213.721 172.336 214.112 172.237 214.59 172.237C215.018 172.237 215.393 172.325 215.715 172.5C216.037 172.674 216.287 172.937 216.465 173.292C216.644 173.644 216.733 174.089 216.733 174.627V178.65H215.76V174.693C215.76 174.196 215.631 173.808 215.373 173.531C215.115 173.251 214.76 173.11 214.309 173.11C213.999 173.11 213.721 173.178 213.477 173.312C213.235 173.447 213.044 173.644 212.904 173.902C212.764 174.16 212.694 174.473 212.694 174.842ZM164.483 186.319V187.143H161.07V186.319H164.483ZM162.092 192.65V185.445C162.092 185.082 162.178 184.78 162.348 184.538C162.518 184.297 162.74 184.115 163.012 183.994C163.284 183.873 163.571 183.813 163.873 183.813C164.112 183.813 164.307 183.832 164.458 183.871C164.61 183.909 164.722 183.945 164.796 183.978L164.516 184.819C164.467 184.802 164.398 184.782 164.31 184.757C164.225 184.732 164.112 184.72 163.972 184.72C163.651 184.72 163.418 184.801 163.275 184.963C163.135 185.125 163.065 185.363 163.065 185.676V192.65H162.092ZM168.158 192.782C167.586 192.782 167.085 192.646 166.653 192.374C166.225 192.102 165.889 191.722 165.648 191.232C165.409 190.743 165.289 190.172 165.289 189.518C165.289 188.858 165.409 188.282 165.648 187.791C165.889 187.299 166.225 186.917 166.653 186.645C167.085 186.373 167.586 186.237 168.158 186.237C168.73 186.237 169.23 186.373 169.658 186.645C170.09 186.917 170.425 187.299 170.664 187.791C170.906 188.282 171.027 188.858 171.027 189.518C171.027 190.172 170.906 190.743 170.664 191.232C170.425 191.722 170.09 192.102 169.658 192.374C169.23 192.646 168.73 192.782 168.158 192.782ZM168.158 191.908C168.592 191.908 168.949 191.797 169.23 191.575C169.51 191.352 169.717 191.059 169.852 190.697C169.987 190.334 170.054 189.941 170.054 189.518C170.054 189.095 169.987 188.7 169.852 188.335C169.717 187.969 169.51 187.674 169.23 187.448C168.949 187.223 168.592 187.11 168.158 187.11C167.724 187.11 167.367 187.223 167.086 187.448C166.806 187.674 166.598 187.969 166.464 188.335C166.329 188.7 166.262 189.095 166.262 189.518C166.262 189.941 166.329 190.334 166.464 190.697C166.598 191.059 166.806 191.352 167.086 191.575C167.367 191.797 167.724 191.908 168.158 191.908ZM172.512 192.65V186.319H173.452V187.275H173.517C173.633 186.962 173.842 186.708 174.144 186.513C174.446 186.318 174.787 186.22 175.166 186.22C175.238 186.22 175.327 186.222 175.434 186.224C175.541 186.227 175.622 186.231 175.677 186.237V187.226C175.644 187.218 175.569 187.205 175.451 187.189C175.335 187.17 175.213 187.16 175.084 187.16C174.776 187.16 174.501 187.225 174.259 187.354C174.02 187.48 173.831 187.656 173.691 187.881C173.553 188.104 173.485 188.358 173.485 188.644V192.65H172.512ZM162.142 206.65H161.07L164.17 198.209H165.225L168.325 206.65H167.253L164.731 199.544H164.665L162.142 206.65ZM162.538 203.353H166.857V204.26H162.538V203.353ZM170.481 198.209V206.65H169.508V198.209H170.481ZM173.235 198.209V206.65H172.262V198.209H173.235Z" fill="black"/>
<path d="M154.186 154.147L213.23 156.462V218.839L154.186 222.904V154.147Z" stroke="#F4C053" stroke-width="0.77163"/>
<path d="M175.162 152.168H213.23V220.149L175.162 224.42V152.168Z" fill="#F3B22A" stroke="#F69D0B" stroke-width="0.776906"/>
<path opacity="0.3" d="M196.205 200.511L189.917 198.696L193.22 187.556L196.205 184.593V200.511ZM204.068 180.004L202.12 182.772L185.423 185.399L184.694 179.226L204.068 180.004Z" fill="black"/>
<path fill-rule="evenodd" clip-rule="evenodd" d="M38 223.705H71.8377V206.771H95.806C102.292 206.771 109.059 202.82 113.007 196.329H108.213L110.187 193.789H119.44C119.304 192.882 119.035 191.91 118.578 190.966L130.357 179.395V176.008L135.283 170.66C134.537 170.239 133.681 169.864 132.746 169.606L137.539 164.17C133.737 162.137 129.206 163.035 127.106 164.436L114.981 176.008L115.263 179.959L111.033 185.886L77.7593 180.523C68.8299 182.217 49.956 186.902 45.8955 192.095C41.8349 197.288 38.9399 204.043 38 206.771V223.705Z" fill="#ADCDFF"/>
<path d="M108.213 196.329H113.007H119.492C119.58 195.626 119.584 194.743 119.44 193.789H110.187L108.213 196.329Z" fill="black"/>
<path d="M137.539 172.339C137.008 171.807 136.235 171.197 135.283 170.66L130.357 176.008V179.395L137.539 172.339Z" fill="black"/>
<path d="M135.283 170.66L139.795 165.847C139.094 165.146 138.332 164.594 137.539 164.17L132.746 169.606C133.681 169.864 134.537 170.239 135.283 170.66Z" fill="black"/>
<path d="M71.8377 206.771V223.705H38V206.771C38.9399 204.043 41.8349 197.288 45.8955 192.095C49.956 186.902 68.8299 182.217 77.7593 180.523L111.033 185.886M71.8377 206.771H67.89M71.8377 206.771H95.806C102.292 206.771 109.059 202.82 113.007 196.329M113.007 196.329H119.492M113.007 196.329H108.213M90.1664 196.329H108.213M119.492 196.329H108.213M119.492 196.329C119.58 195.626 119.584 194.743 119.44 193.789M111.033 185.886C115.21 186.501 117.458 188.65 118.578 190.966M111.033 185.886L115.263 179.959M118.578 190.966C119.035 191.91 119.304 192.882 119.44 193.789M118.578 190.966L130.357 179.395M115.263 179.959L124.85 170.927C127.663 169.051 130.445 168.972 132.746 169.606M115.263 179.959L114.981 176.008L127.106 164.436C129.206 163.035 133.737 162.137 137.539 164.17M135.283 170.66C136.235 171.197 137.008 171.807 137.539 172.339L130.357 179.395M135.283 170.66L139.795 165.847C139.094 165.146 138.332 164.594 137.539 164.17M135.283 170.66L130.357 176.008V179.395M135.283 170.66C134.537 170.239 133.681 169.864 132.746 169.606M108.213 196.329L110.187 193.789H119.44M132.746 169.606L137.539 164.17" stroke="#ADCDFF" stroke-width="0.351017"/>
<path d="M71.8377 206.771V223.705H38V206.771C38.9399 204.043 41.8349 197.288 45.8955 192.095C49.956 186.902 68.8299 182.217 77.7593 180.523L111.033 185.886M71.8377 206.771H67.89M71.8377 206.771H95.806C102.292 206.771 109.059 202.82 113.007 196.329M113.007 196.329H119.492M113.007 196.329H108.213M90.1664 196.329H108.213M119.492 196.329H108.213M119.492 196.329C119.58 195.626 119.584 194.743 119.44 193.789M111.033 185.886C115.21 186.501 117.458 188.65 118.578 190.966M111.033 185.886L115.263 179.959M118.578 190.966C119.035 191.91 119.304 192.882 119.44 193.789M118.578 190.966L130.357 179.395M115.263 179.959L124.85 170.927C127.663 169.051 130.445 168.972 132.746 169.606M115.263 179.959L114.981 176.008L127.106 164.436C129.206 163.035 133.737 162.137 137.539 164.17M135.283 170.66C136.235 171.197 137.008 171.807 137.539 172.339L130.357 179.395M135.283 170.66L139.795 165.847C139.094 165.146 138.332 164.594 137.539 164.17M135.283 170.66L130.357 176.008V179.395M135.283 170.66C134.537 170.239 133.681 169.864 132.746 169.606M108.213 196.329L110.187 193.789H119.44M132.746 169.606L137.539 164.17" stroke="black" stroke-opacity="0.2" stroke-width="0.351017"/>
<path fill-rule="evenodd" clip-rule="evenodd" d="M106.797 39.3023C105.683 34.1041 100.451 32.3405 97.9743 32.1084V55.1338C94.3642 53.4364 89.6577 54.2734 88.4551 57.4754C85.2534 56.9249 81.8819 58.188 81.0254 61.1311C77.3664 60.4914 73.3304 62.2467 72.2026 67.3819V87.8033H57.8076V115.187H90.5447C95.1882 116.115 102.85 111.087 106.101 108.457L131.872 71.559C126.251 67.4726 122.441 71.1416 118.613 74.8286C115.485 77.8418 112.343 80.8672 108.19 79.6812C105.316 78.8604 105.83 70.6212 106.452 60.6673C106.884 53.735 107.369 45.9711 106.797 39.3023ZM87.5264 76.8964V84.5545C86.9063 84.6922 86.0818 84.5806 85.2046 84.2537C85.1272 82.8843 85.0188 79.8668 85.2046 78.7529C85.3903 77.639 86.8298 77.0511 87.5264 76.8964ZM94.7239 81.0735V73.6475C94.1047 73.6475 92.82 73.9724 92.6343 75.272V80.8572C93.2906 81.0621 93.9901 81.1507 94.7239 81.0735ZM102.154 70.3987V78.0567C101.406 78.0567 100.709 77.9479 100.064 77.7601V71.559C100.25 70.6307 101.534 70.3987 102.154 70.3987Z" fill="#FDA6A6"/>
<path d="M87.5264 84.5545V76.8964C86.8298 77.0511 85.3903 77.639 85.2046 78.7529C85.0188 79.8668 85.1272 82.8843 85.2046 84.2537C86.0818 84.5806 86.9063 84.6922 87.5264 84.5545Z" fill="black"/>
<path d="M94.7239 81.0735V73.6475C94.1047 73.6475 92.82 73.9724 92.6343 75.272V80.8572C93.2906 81.0621 93.9901 81.1507 94.7239 81.0735Z" fill="black"/>
<path d="M102.154 78.0567V70.3987C101.534 70.3987 100.25 70.6307 100.064 71.559V77.7601C100.709 77.9479 101.406 78.0567 102.154 78.0567Z" fill="black"/>
<path d="M72.2026 87.8033H57.8076V115.187H90.5447C95.1882 116.115 102.85 111.087 106.101 108.457L131.872 71.559C126.251 67.4726 122.441 71.1416 118.613 74.8286C115.485 77.8418 112.343 80.8672 108.19 79.6812C105.316 78.8604 105.83 70.6212 106.452 60.6673C106.884 53.735 107.369 45.9711 106.797 39.3023C105.683 34.1041 100.451 32.3405 97.9743 32.1084V55.1338M72.2026 87.8033V90.356M72.2026 87.8033V67.3819C73.3304 62.2467 77.3664 60.4914 81.0254 61.1311M80.0967 70.8628V78.7529C80.7498 81.4947 83.1254 83.479 85.2046 84.2537M87.5264 76.8964V84.5545C86.9063 84.6922 86.0818 84.5806 85.2046 84.2537M87.5264 76.8964C86.8298 77.0511 85.3903 77.639 85.2046 78.7529C85.0188 79.8668 85.1272 82.8843 85.2046 84.2537M87.5264 76.8964V76.2002M87.5264 76.2002V67.3819C86.992 63.9638 84.1458 61.6766 81.0254 61.1311M87.5264 76.2002C88.262 77.6095 90.1338 80.0768 92.6343 80.8572M81.0254 61.1311C81.8819 58.188 85.2534 56.9249 88.4551 57.4754M94.7239 73.6476V81.0735C93.9901 81.1507 93.2906 81.0621 92.6343 80.8572M94.7239 73.6476C94.1047 73.6476 92.82 73.9724 92.6343 75.272V80.8572M94.7239 73.6476V73.1834M94.7239 73.1834V63.4368C94.065 59.9244 91.3284 57.9695 88.4551 57.4754M94.7239 73.1834C95.3561 74.5105 97.1868 76.9219 100.064 77.7601M88.4551 57.4754C89.6577 54.2734 94.3642 53.4364 97.9743 55.1338M102.154 70.3987V78.0567C101.406 78.0567 100.709 77.9479 100.064 77.7601M102.154 70.3987V60.1879C101.581 57.7336 99.94 56.058 97.9743 55.1338M102.154 70.3987C101.534 70.3987 100.25 70.6307 100.064 71.559V77.7601" stroke="#FDA6A6" stroke-width="0.351017"/>
<path d="M72.2026 87.8033H57.8076V115.187H90.5447C95.1882 116.115 102.85 111.087 106.101 108.457L131.872 71.559C126.251 67.4726 122.441 71.1416 118.613 74.8286C115.485 77.8418 112.343 80.8672 108.19 79.6812C105.316 78.8604 105.83 70.6212 106.452 60.6673C106.884 53.735 107.369 45.9711 106.797 39.3023C105.683 34.1041 100.451 32.3405 97.9743 32.1084V55.1338M72.2026 87.8033V90.356M72.2026 87.8033V67.3819C73.3304 62.2467 77.3664 60.4914 81.0254 61.1311M80.0967 70.8628V78.7529C80.7498 81.4947 83.1254 83.479 85.2046 84.2537M87.5264 76.8964V84.5545C86.9063 84.6922 86.0818 84.5806 85.2046 84.2537M87.5264 76.8964C86.8298 77.0511 85.3903 77.639 85.2046 78.7529C85.0188 79.8668 85.1272 82.8843 85.2046 84.2537M87.5264 76.8964V76.2002M87.5264 76.2002V67.3819C86.992 63.9638 84.1458 61.6766 81.0254 61.1311M87.5264 76.2002C88.262 77.6095 90.1338 80.0768 92.6343 80.8572M81.0254 61.1311C81.8819 58.188 85.2534 56.9249 88.4551 57.4754M94.7239 73.6476V81.0735C93.9901 81.1507 93.2906 81.0621 92.6343 80.8572M94.7239 73.6476C94.1047 73.6476 92.82 73.9724 92.6343 75.272V80.8572M94.7239 73.6476V73.1834M94.7239 73.1834V63.4368C94.065 59.9244 91.3284 57.9695 88.4551 57.4754M94.7239 73.1834C95.3561 74.5105 97.1868 76.9219 100.064 77.7601M88.4551 57.4754C89.6577 54.2734 94.3642 53.4364 97.9743 55.1338M102.154 70.3987V78.0567C101.406 78.0567 100.709 77.9479 100.064 77.7601M102.154 70.3987V60.1879C101.581 57.7336 99.94 56.058 97.9743 55.1338M102.154 70.3987C101.534 70.3987 100.25 70.6307 100.064 71.559V77.7601" stroke="black" stroke-opacity="0.2" stroke-width="0.351017"/>
<path fill-rule="evenodd" clip-rule="evenodd" d="M169.368 57.3085L196.144 48.9082L228.957 71.2214L239.983 90.6471V110.073H207.957V100.812C199.923 98.4235 194.859 94.1997 192.061 90.6471C191.059 92.5721 187.848 96.3698 183.018 96.1598L182.493 92.5471C180.686 95.2309 177.612 96.8209 173.568 96.9473L173.043 93.3152C171.306 95.2476 168.933 96.5301 165.693 96.1598L168.318 83.5593C166.356 83.1135 164.956 81.7682 163.981 80.1467C160.709 84.7589 154.851 89.371 149.628 85.888L154.405 80.9343L153.767 77.7842L169.368 57.3085ZM162.018 73.584H173.043L170.943 76.2091H162.425C162.188 75.2222 162.061 74.3049 162.018 73.584Z" fill="#A5F4D2"/>
<path d="M173.043 73.584H162.018C162.061 74.3049 162.188 75.2222 162.425 76.2091H170.943L173.043 73.584Z" fill="black"/>
<path d="M153.767 77.7842L148.367 84.8719C148.782 85.2672 149.203 85.6045 149.628 85.888L154.405 80.9343L153.767 77.7842Z" fill="black"/>
<path d="M194.306 73.584H173.043M168.318 83.5593C166.356 83.1135 164.956 81.7682 163.981 80.1467M168.318 83.5593C170.609 83.9143 173.815 84.4 177.056 84.8719M168.318 83.5593L165.693 96.1598C168.933 96.5301 171.306 95.2476 173.043 93.3152M211.369 101.672C201.329 99.5745 195.236 94.6786 192.061 90.6471M163.981 80.1467C163.233 78.903 162.735 77.4967 162.425 76.2091M163.981 80.1467C160.709 84.7589 154.851 89.371 149.628 85.888M192.061 90.6471C190.787 89.0288 189.982 87.5498 189.581 86.4469C188.864 86.4469 186.88 86.2223 184.331 85.888M192.061 90.6471C191.059 92.5721 187.848 96.3698 183.018 96.1598L182.493 92.5471M192.061 90.6471C194.859 94.1997 199.923 98.4235 207.957 100.813V110.073H239.983V90.6471L228.957 71.2214L196.144 48.9082L169.368 57.3085L153.767 77.7842M184.331 85.888C182.17 85.6047 179.603 85.2426 177.056 84.8719M184.331 85.888C184.331 88.5153 183.69 90.7708 182.493 92.5471M177.056 84.8719C176.427 87.3673 175.247 90.8641 173.043 93.3152M173.043 93.3152L173.568 96.9473C177.612 96.8209 180.686 95.2309 182.493 92.5471M173.043 73.584H162.018C162.061 74.3049 162.188 75.2222 162.425 76.2091M173.043 73.584L170.943 76.2091H162.425M153.767 77.7842L148.367 84.8719C148.782 85.2672 149.203 85.6045 149.628 85.888M153.767 77.7842L154.405 80.9343L149.628 85.888" stroke="#A5F4D2" stroke-width="0.351017"/>
<path d="M194.306 73.584H173.043M168.318 83.5593C166.356 83.1135 164.956 81.7682 163.981 80.1467M168.318 83.5593C170.609 83.9143 173.815 84.4 177.056 84.8719M168.318 83.5593L165.693 96.1598C168.933 96.5301 171.306 95.2476 173.043 93.3152M211.369 101.672C201.329 99.5745 195.236 94.6786 192.061 90.6471M163.981 80.1467C163.233 78.903 162.735 77.4967 162.425 76.2091M163.981 80.1467C160.709 84.7589 154.851 89.371 149.628 85.888M192.061 90.6471C190.787 89.0288 189.982 87.5498 189.581 86.4469C188.864 86.4469 186.88 86.2223 184.331 85.888M192.061 90.6471C191.059 92.5721 187.848 96.3698 183.018 96.1598L182.493 92.5471M192.061 90.6471C194.859 94.1997 199.923 98.4235 207.957 100.813V110.073H239.983V90.6471L228.957 71.2214L196.144 48.9082L169.368 57.3085L153.767 77.7842M184.331 85.888C182.17 85.6047 179.603 85.2426 177.056 84.8719M184.331 85.888C184.331 88.5153 183.69 90.7708 182.493 92.5471M177.056 84.8719C176.427 87.3673 175.247 90.8641 173.043 93.3152M173.043 93.3152L173.568 96.9473C177.612 96.8209 180.686 95.2309 182.493 92.5471M173.043 73.584H162.018C162.061 74.3049 162.188 75.2222 162.425 76.2091M173.043 73.584L170.943 76.2091H162.425M153.767 77.7842L148.367 84.8719C148.782 85.2672 149.203 85.6045 149.628 85.888M153.767 77.7842L154.405 80.9343L149.628 85.888" stroke="black" stroke-opacity="0.2" stroke-width="0.351017"/>
<path d="M161.179 92.1324L149.942 94.848L160.18 102.986L161.179 92.1324Z" fill="#A5F4D2"/>
<path fill-rule="evenodd" clip-rule="evenodd" d="M199.031 32.1084L208.744 39.4586L205.332 43.6588L160.18 102.986L161.179 92.1324L149.942 94.848L199.031 32.1084Z" fill="#10B982"/>
<path d="M148.367 106.661L160.18 102.986L149.942 94.848L148.367 106.661Z" fill="black"/>
<mask id="path-13-inside-1_2018_6112" fill="white">
<path d="M112.218 72.1074C114.483 72.1074 116.719 71.6096 118.77 70.6491C120.82 69.6887 122.634 68.2892 124.084 66.5497C125.533 64.8102 126.582 62.7733 127.157 60.5832C127.732 58.3931 127.818 56.1034 127.41 53.8763L112.218 56.6627V72.1074Z"/>
</mask>
<path d="M112.218 72.1074C114.483 72.1074 116.719 71.6096 118.77 70.6491C120.82 69.6887 122.634 68.2892 124.084 66.5497C125.533 64.8102 126.582 62.7733 127.157 60.5832C127.732 58.3931 127.818 56.1034 127.41 53.8763L112.218 56.6627V72.1074Z" stroke="#F04444" stroke-width="1.47093" mask="url(#path-13-inside-1_2018_6112)"/>
<path d="M117.505 46.2703L114.521 59.96L134.529 42.7601L117.505 46.2703Z" fill="#F04444"/>
<path fill-rule="evenodd" clip-rule="evenodd" d="M218.001 165.431C220.961 162.708 226.635 161.965 231.816 164.688L253.526 186.965C255.171 189.275 258.361 195.034 257.966 199.589V227.065H228.61V211.906C223.927 209.791 220.399 205.888 217.29 202.448C215.814 200.815 214.433 199.287 213.067 198.104V195.041L205.173 202.807C203.209 203.828 198.853 205.018 195.551 202.677L200.732 198.104V195.08L203.126 192.658C199.609 193.926 196.336 193.882 193.995 192.658L199.823 186.841L199.369 183.947L218.001 165.431ZM243.905 195.876C243.812 195.13 243.439 194.641 242.918 194.321L237.491 199.341L237.94 201.569L243.905 195.876Z" fill="#FBD597"/>
<path d="M192.097 191.174L199.369 183.947L199.823 186.841L193.995 192.658C193.264 192.277 192.625 191.78 192.097 191.174Z" fill="black"/>
<path d="M194.318 201.569L197.525 198.325L200.732 195.08V198.104L195.551 202.677C195.12 202.371 194.706 202.004 194.318 201.569Z" fill="black"/>
<path d="M242.918 194.321C243.439 194.641 243.812 195.13 243.905 195.876L237.94 201.569L237.491 199.341L242.918 194.321Z" fill="black"/>
<path d="M235.024 213.451C226.9 213.08 221.678 207.303 217.29 202.448M243.905 195.876C243.658 193.896 241.438 193.726 239.711 193.726M243.905 195.876L237.94 201.569M243.905 195.876C243.812 195.13 243.439 194.641 242.918 194.321L237.491 199.341L237.94 201.569M236.257 184.242L224.662 195.876C224.316 197.613 224.32 199.253 224.662 200.68M242.425 190.926L239.711 193.726M233.79 199.837L239.711 193.726M237.94 201.569L233.79 205.53C228.644 206.598 225.54 204.336 224.662 200.68M230.337 178.054L215.781 192.372M223.922 171.618L203.126 192.658M200.732 195.08V198.104L195.551 202.677M200.732 195.08L203.126 192.658M200.732 195.08L197.525 198.325L194.318 201.569C194.706 202.004 195.12 202.371 195.551 202.677M195.551 202.677C198.853 205.018 203.209 203.828 205.173 202.807L213.067 195.041M203.126 192.658C199.609 193.926 196.336 193.882 193.995 192.658M215.781 192.372C215.781 198.846 219.235 201.569 224.662 200.68M215.781 192.372L213.343 194.77L213.067 195.041M213.067 195.041V198.104C214.433 199.287 215.814 200.815 217.29 202.448M199.369 183.947L192.097 191.174C192.625 191.78 193.264 192.277 193.995 192.658M199.369 183.947L218.001 165.431C220.961 162.708 226.635 161.965 231.816 164.688L253.526 186.965C255.171 189.275 258.361 195.034 257.966 199.589V227.065H228.61V211.906C223.927 209.791 220.399 205.888 217.29 202.448M199.369 183.947L199.823 186.841L193.995 192.658" stroke="#FBD597" stroke-width="0.454504"/>
<path d="M235.024 213.451C226.9 213.08 221.678 207.303 217.29 202.448M243.905 195.876C243.658 193.896 241.438 193.726 239.711 193.726M243.905 195.876L237.94 201.569M243.905 195.876C243.812 195.13 243.439 194.641 242.918 194.321L237.491 199.341L237.94 201.569M236.257 184.242L224.662 195.876C224.316 197.613 224.32 199.253 224.662 200.68M242.425 190.926L239.711 193.726M233.79 199.837L239.711 193.726M237.94 201.569L233.79 205.53C228.644 206.598 225.54 204.336 224.662 200.68M230.337 178.054L215.781 192.372M223.922 171.618L203.126 192.658M200.732 195.08V198.104L195.551 202.677M200.732 195.08L203.126 192.658M200.732 195.08L197.525 198.325L194.318 201.569C194.706 202.004 195.12 202.371 195.551 202.677M195.551 202.677C198.853 205.018 203.209 203.828 205.173 202.807L213.067 195.041M203.126 192.658C199.609 193.926 196.336 193.882 193.995 192.658M215.781 192.372C215.781 198.846 219.235 201.569 224.662 200.68M215.781 192.372L213.343 194.77L213.067 195.041M213.067 195.041V198.104C214.433 199.287 215.814 200.815 217.29 202.448M199.369 183.947L192.097 191.174C192.625 191.78 193.264 192.277 193.995 192.658M199.369 183.947L218.001 165.431C220.961 162.708 226.635 161.965 231.816 164.688L253.526 186.965C255.171 189.275 258.361 195.034 257.966 199.589V227.065H228.61V211.906C223.927 209.791 220.399 205.888 217.29 202.448M199.369 183.947L199.823 186.841L193.995 192.658" stroke="black" stroke-opacity="0.2" stroke-width="0.454504"/>
<path d="M108.389 137.473C102.234 131.351 93.8859 127.912 85.1815 127.912C76.477 127.912 68.1291 131.351 61.9741 137.473C55.8192 143.596 52.3613 151.899 52.3613 160.557" stroke="#4489F3" stroke-width="0.77163"/>
<mask id="path-18-inside-2_2018_6112" fill="white">
<path d="M121.893 161.048C121.893 169.939 118.361 178.465 112.075 184.752C105.788 191.039 97.2614 194.57 88.3708 194.57C79.4802 194.57 70.9537 191.039 64.667 184.752C58.3804 178.465 54.8486 169.939 54.8486 161.048L88.3708 161.048H121.893Z"/>
</mask>
<path d="M121.893 161.048C121.893 169.939 118.361 178.465 112.075 184.752C105.788 191.039 97.2614 194.57 88.3708 194.57C79.4802 194.57 70.9537 191.039 64.667 184.752C58.3804 178.465 54.8486 169.939 54.8486 161.048L88.3708 161.048H121.893Z" fill="#4489F3" stroke="#4489F3" stroke-width="0.702035" mask="url(#path-18-inside-2_2018_6112)"/>
<path d="M108.213 196.328H113.007H119.492C119.58 195.625 119.584 194.742 119.44 193.788H110.187L108.213 196.328Z" fill="black"/>
<path d="M38 223.704H71.8377V206.77H95.806C102.292 206.77 109.059 202.819 113.007 196.328H108.213L110.187 193.788H119.44C119.304 192.881 119.035 191.909 118.578 190.965C117.458 188.649 115.21 186.5 111.033 185.885L77.7593 180.522C68.8299 182.216 49.956 186.901 45.8955 192.094C41.8349 197.287 38.9399 204.042 38 206.77V223.704Z" fill="#ADCDFF"/>
<path d="M71.8377 206.77V223.704H38V206.77C38.9399 204.042 41.8349 197.287 45.8955 192.094C49.956 186.901 68.8299 182.216 77.7593 180.522L111.033 185.885C115.21 186.5 117.458 188.649 118.578 190.965C119.035 191.909 119.304 192.881 119.44 193.788M71.8377 206.77H67.89M71.8377 206.77H95.806C102.292 206.77 109.059 202.819 113.007 196.328M113.007 196.328H119.492M113.007 196.328H108.213M90.1664 196.328H108.213M119.492 196.328H108.213M119.492 196.328C119.58 195.625 119.584 194.742 119.44 193.788M108.213 196.328L110.187 193.788H119.44" stroke="#ADCDFF" stroke-width="0.351017"/>
<path d="M71.8377 206.77V223.704H38V206.77C38.9399 204.042 41.8349 197.287 45.8955 192.094C49.956 186.901 68.8299 182.216 77.7593 180.522L111.033 185.885C115.21 186.5 117.458 188.649 118.578 190.965C119.035 191.909 119.304 192.881 119.44 193.788M71.8377 206.77H67.89M71.8377 206.77H95.806C102.292 206.77 109.059 202.819 113.007 196.328M113.007 196.328H119.492M113.007 196.328H108.213M90.1664 196.328H108.213M119.492 196.328H108.213M119.492 196.328C119.58 195.625 119.584 194.742 119.44 193.788M108.213 196.328L110.187 193.788H119.44" stroke="black" stroke-opacity="0.2" stroke-width="0.351017"/>
<path fill-rule="evenodd" clip-rule="evenodd" d="M162.058 73.5841H173.083L170.983 76.2091H162.465C162.228 75.2222 162.101 74.305 162.058 73.5841Z" fill="#A5F4D2"/>
<path d="M173.083 73.5841H162.058C162.101 74.305 162.228 75.2222 162.465 76.2091H170.983L173.083 73.5841Z" fill="black"/>
<path d="M240.023 90.6471L228.997 71.2215L194.346 73.5841H173.083L170.983 76.2091H162.465C162.775 77.4968 163.273 78.903 164.021 80.1468C164.996 81.7683 166.396 83.1135 168.358 83.5594C170.649 83.9143 173.855 84.4001 177.096 84.8719C179.643 85.2426 182.21 85.6047 184.371 85.8881C186.92 86.2223 188.904 86.447 189.621 86.447C190.022 87.5498 190.827 89.0288 192.101 90.6471C194.88 94.1747 199.891 98.3641 207.827 100.762C207.884 100.779 207.94 100.796 207.997 100.813V110.073H240.023V90.6471Z" fill="#A5F4D2"/>
<path fill-rule="evenodd" clip-rule="evenodd" d="M162.058 73.5841H173.083L170.983 76.2091H162.465C162.228 75.2222 162.101 74.305 162.058 73.5841Z" fill="#A5F4D2"/>
<path d="M173.083 73.5841H162.058C162.101 74.305 162.228 75.2222 162.465 76.2091H170.983L173.083 73.5841Z" fill="black"/>
<path d="M194.346 73.5841H173.083M211.409 101.672C201.369 99.5745 195.276 94.6786 192.101 90.6471M192.101 90.6471C190.827 89.0288 190.022 87.5498 189.621 86.447C188.904 86.447 186.92 86.2223 184.371 85.8881M192.101 90.6471C191.099 92.5722 187.888 96.3698 183.058 96.1598L182.533 92.5472M192.101 90.6471C194.899 94.1997 199.963 98.4236 207.997 100.813V110.073H240.023V90.6471L228.997 71.2215L199.656 51.2695M184.371 85.8881C182.21 85.6047 179.643 85.2426 177.096 84.8719M184.371 85.8881C184.371 88.5154 183.73 90.7708 182.533 92.5472M177.096 84.8719C173.855 84.4001 170.649 83.9143 168.358 83.5594C166.396 83.1135 164.996 81.7683 164.021 80.1468C163.273 78.903 162.775 77.4968 162.465 76.2091M177.096 84.8719C176.467 87.3673 175.286 90.8641 173.083 93.3153L173.608 96.9473C177.652 96.821 180.726 95.2309 182.533 92.5472M173.083 73.5841H162.058C162.101 74.305 162.228 75.2222 162.465 76.2091M173.083 73.5841L170.983 76.2091H162.465" stroke="#A5F4D2" stroke-width="0.351017"/>
<path d="M194.346 73.5841H173.083M211.409 101.672C201.369 99.5745 195.276 94.6786 192.101 90.6471M192.101 90.6471C190.827 89.0288 190.022 87.5498 189.621 86.447C188.904 86.447 186.92 86.2223 184.371 85.8881M192.101 90.6471C191.099 92.5722 187.888 96.3698 183.058 96.1598L182.533 92.5472M192.101 90.6471C194.899 94.1997 199.963 98.4236 207.997 100.813V110.073H240.023V90.6471L228.997 71.2215L199.656 51.2695M184.371 85.8881C182.21 85.6047 179.643 85.2426 177.096 84.8719M184.371 85.8881C184.371 88.5154 183.73 90.7708 182.533 92.5472M177.096 84.8719C173.855 84.4001 170.649 83.9143 168.358 83.5594C166.396 83.1135 164.996 81.7683 164.021 80.1468C163.273 78.903 162.775 77.4968 162.465 76.2091M177.096 84.8719C176.467 87.3673 175.286 90.8641 173.083 93.3153L173.608 96.9473C177.652 96.821 180.726 95.2309 182.533 92.5472M173.083 73.5841H162.058C162.101 74.305 162.228 75.2222 162.465 76.2091M173.083 73.5841L170.983 76.2091H162.465" stroke="black" stroke-opacity="0.2" stroke-width="0.351017"/>
<rect x="122.238" y="104.49" width="4.24397" height="4.24397" fill="#10B982"/>
<rect x="129.568" y="104.49" width="4.24397" height="4.24397" fill="#10B982"/>
<rect x="136.899" y="104.49" width="4.24397" height="4.24397" fill="#10B982"/>
<rect x="111.004" y="149.132" width="4.24397" height="4.24397" rx="2.12198" transform="rotate(90 111.004 149.132)" fill="#4489F3"/>
<rect x="111.775" y="152.219" width="6.94467" height="5.78723" rx="2.89361" transform="rotate(90 111.775 152.219)" fill="#4489F3"/>
</svg>
