<svg width="1512" height="845" viewBox="0 0 1512 845" fill="none" xmlns="http://www.w3.org/2000/svg">
<g filter="url(#filter0_n_2009_2889)">
<path d="M1515 730H1511.53C1505.95 794.437 1451.88 845 1386 845C1320.12 845 1266.05 794.437 1260.47 730H1259.53C1253.95 794.437 1199.88 845 1134 845C1068.12 845 1014.05 794.437 1008.47 730H1007.53C1001.95 794.437 947.882 845 882 845C816.118 845 762.047 794.437 756.475 730H755.525C749.953 794.437 695.882 845 630 845C564.118 845 510.047 794.437 504.475 730H503.525C497.953 794.437 443.882 845 378 845C312.118 845 258.047 794.437 252.475 730H251.525C245.953 794.437 191.882 845 126 845C60.1184 845 6.04747 794.437 0.474609 730H0V0H1515V730Z" fill="#28293E"/>
</g>
<defs>
<filter id="filter0_n_2009_2889" x="0" y="0" width="1515" height="845" filterUnits="userSpaceOnUse" color-interpolation-filters="sRGB">
<feFlood flood-opacity="0" result="BackgroundImageFix"/>
<feBlend mode="normal" in="SourceGraphic" in2="BackgroundImageFix" result="shape"/>
<feTurbulence type="fractalNoise" baseFrequency="0.40000000596046448 0.40000000596046448" stitchTiles="stitch" numOctaves="3" result="noise" seed="4860" />
<feColorMatrix in="noise" type="luminanceToAlpha" result="alphaNoise" />
<feComponentTransfer in="alphaNoise" result="coloredNoise1">
<feFuncA type="discrete" tableValues="0 0 0 0 0 0 0 0 0 0 0 0 1 1 1 1 1 1 1 1 1 1 1 1 1 1 1 1 1 1 1 1 1 1 1 1 1 1 0 0 0 0 0 0 0 0 0 0 0 0 0 0 0 0 0 0 0 0 0 0 0 0 0 0 0 0 0 0 0 0 0 0 0 0 0 0 0 0 0 0 0 0 0 0 0 0 0 0 0 0 0 0 0 0 0 0 0 0 0 0 "/>
</feComponentTransfer>
<feComposite operator="in" in2="shape" in="coloredNoise1" result="noise1Clipped" />
<feFlood flood-color="rgba(255, 255, 255, 0.16)" result="color1Flood" />
<feComposite operator="in" in2="noise1Clipped" in="color1Flood" result="color1" />
<feMerge result="effect1_noise_2009_2889">
<feMergeNode in="shape" />
<feMergeNode in="color1" />
</feMerge>
</filter>
</defs>
</svg>
