<svg width="344" height="248" viewBox="0 0 344 248" fill="none" xmlns="http://www.w3.org/2000/svg">
<rect x="0.5" y="24.1425" width="343" height="223" rx="11.5" fill="#FDF0E9"/>
<rect x="0.5" y="24.1425" width="343" height="223" rx="11.5" stroke="#28293E" stroke-dasharray="5 5"/>
<path d="M40 66.1425L40.6223 73.5202L48 74.1425L40.6223 74.7647L40 82.1425L39.3777 74.7647L32 74.1425L39.3777 73.5202L40 66.1425Z" fill="#28293E"/>
<path d="M59.008 68.5225V75.6105C59.008 76.4531 59.2267 77.0878 59.664 77.5145C60.112 77.9411 60.7307 78.1545 61.52 78.1545C62.32 78.1545 62.9387 77.9411 63.376 77.5145C63.824 77.0878 64.048 76.4531 64.048 75.6105V68.5225H65.872V75.5785C65.872 76.4851 65.6747 77.2531 65.28 77.8825C64.8853 78.5118 64.3573 78.9811 63.696 79.2905C63.0347 79.5998 62.304 79.7545 61.504 79.7545C60.704 79.7545 59.9733 79.5998 59.312 79.2905C58.6613 78.9811 58.144 78.5118 57.76 77.8825C57.376 77.2531 57.184 76.4851 57.184 75.5785V68.5225H59.008ZM73.3509 74.0905L76.8069 79.6425H74.7589L72.2469 75.6105L69.8949 79.6425H67.8629L71.3189 74.0905L67.8469 68.5225H69.8949L72.4229 72.5865L74.7909 68.5225H76.8229L73.3509 74.0905ZM86.5976 68.5225C87.7816 68.5225 88.8163 68.7518 89.7016 69.2105C90.5976 69.6585 91.2856 70.3091 91.7656 71.1625C92.2563 72.0051 92.5016 72.9918 92.5016 74.1225C92.5016 75.2531 92.2563 76.2345 91.7656 77.0665C91.2856 77.8985 90.5976 78.5385 89.7016 78.9865C88.8163 79.4238 87.7816 79.6425 86.5976 79.6425H82.9656V68.5225H86.5976ZM86.5976 78.1545C87.899 78.1545 88.8963 77.8025 89.5896 77.0985C90.283 76.3945 90.6296 75.4025 90.6296 74.1225C90.6296 72.8318 90.283 71.8238 89.5896 71.0985C88.8963 70.3731 87.899 70.0105 86.5976 70.0105H84.7896V78.1545H86.5976ZM102.389 75.0185C102.389 75.3491 102.368 75.6478 102.325 75.9145H95.5894C95.6427 76.6185 95.904 77.1838 96.3734 77.6105C96.8427 78.0371 97.4187 78.2505 98.1014 78.2505C99.0827 78.2505 99.776 77.8398 100.181 77.0185H102.149C101.883 77.8291 101.397 78.4958 100.693 79.0185C100 79.5305 99.136 79.7865 98.1014 79.7865C97.2587 79.7865 96.5014 79.5998 95.8294 79.2265C95.168 78.8425 94.6454 78.3091 94.2614 77.6265C93.888 76.9331 93.7014 76.1331 93.7014 75.2265C93.7014 74.3198 93.8827 73.5251 94.2454 72.8425C94.6187 72.1491 95.136 71.6158 95.7974 71.2425C96.4694 70.8691 97.2374 70.6825 98.1014 70.6825C98.9334 70.6825 99.6747 70.8638 100.325 71.2265C100.976 71.5891 101.483 72.1011 101.845 72.7625C102.208 73.4131 102.389 74.1651 102.389 75.0185ZM100.485 74.4425C100.475 73.7705 100.235 73.2318 99.7654 72.8265C99.296 72.4211 98.7147 72.2185 98.0214 72.2185C97.392 72.2185 96.8534 72.4211 96.4054 72.8265C95.9574 73.2211 95.6907 73.7598 95.6054 74.4425H100.485ZM107.384 79.7865C106.691 79.7865 106.067 79.6638 105.512 79.4185C104.968 79.1625 104.536 78.8211 104.216 78.3945C103.896 77.9571 103.726 77.4718 103.704 76.9385H105.592C105.624 77.3118 105.8 77.6265 106.12 77.8825C106.451 78.1278 106.862 78.2505 107.352 78.2505C107.864 78.2505 108.259 78.1545 108.536 77.9625C108.824 77.7598 108.968 77.5038 108.968 77.1945C108.968 76.8638 108.808 76.6185 108.488 76.4585C108.179 76.2985 107.683 76.1225 107 75.9305C106.339 75.7491 105.8 75.5731 105.384 75.4025C104.968 75.2318 104.606 74.9705 104.296 74.6185C103.998 74.2665 103.848 73.8025 103.848 73.2265C103.848 72.7571 103.987 72.3305 104.264 71.9465C104.542 71.5518 104.936 71.2425 105.448 71.0185C105.971 70.7945 106.568 70.6825 107.24 70.6825C108.243 70.6825 109.048 70.9385 109.656 71.4505C110.275 71.9518 110.606 72.6398 110.648 73.5145H108.824C108.792 73.1198 108.632 72.8051 108.344 72.5705C108.056 72.3358 107.667 72.2185 107.176 72.2185C106.696 72.2185 106.328 72.3091 106.072 72.4905C105.816 72.6718 105.688 72.9118 105.688 73.2105C105.688 73.4451 105.774 73.6425 105.944 73.8025C106.115 73.9625 106.323 74.0905 106.568 74.1865C106.814 74.2718 107.176 74.3838 107.656 74.5225C108.296 74.6931 108.819 74.8691 109.224 75.0505C109.64 75.2211 109.998 75.4771 110.296 75.8185C110.595 76.1598 110.75 76.6131 110.76 77.1785C110.76 77.6798 110.622 78.1278 110.344 78.5225C110.067 78.9171 109.672 79.2265 109.16 79.4505C108.659 79.6745 108.067 79.7865 107.384 79.7865ZM113.659 69.6585C113.329 69.6585 113.051 69.5465 112.827 69.3225C112.603 69.0985 112.491 68.8211 112.491 68.4905C112.491 68.1598 112.603 67.8825 112.827 67.6585C113.051 67.4345 113.329 67.3225 113.659 67.3225C113.979 67.3225 114.251 67.4345 114.475 67.6585C114.699 67.8825 114.811 68.1598 114.811 68.4905C114.811 68.8211 114.699 69.0985 114.475 69.3225C114.251 69.5465 113.979 69.6585 113.659 69.6585ZM114.555 70.8265V79.6425H112.731V70.8265H114.555ZM120.502 70.6825C121.185 70.6825 121.787 70.8211 122.31 71.0985C122.843 71.3651 123.259 71.7011 123.558 72.1065V70.8265H125.398V79.7865C125.398 80.5971 125.227 81.3171 124.886 81.9465C124.545 82.5865 124.049 83.0878 123.398 83.4505C122.758 83.8131 121.99 83.9945 121.094 83.9945C119.899 83.9945 118.907 83.7118 118.118 83.1465C117.329 82.5918 116.881 81.8345 116.774 80.8745H118.582C118.721 81.3331 119.014 81.7011 119.462 81.9785C119.921 82.2665 120.465 82.4105 121.094 82.4105C121.83 82.4105 122.422 82.1865 122.87 81.7385C123.329 81.2905 123.558 80.6398 123.558 79.7865V78.3145C123.249 78.7305 122.827 79.0825 122.294 79.3705C121.771 79.6478 121.174 79.7865 120.502 79.7865C119.734 79.7865 119.03 79.5945 118.39 79.2105C117.761 78.8158 117.259 78.2718 116.886 77.5785C116.523 76.8745 116.342 76.0798 116.342 75.1945C116.342 74.3091 116.523 73.5251 116.886 72.8425C117.259 72.1598 117.761 71.6318 118.39 71.2585C119.03 70.8745 119.734 70.6825 120.502 70.6825ZM123.558 75.2265C123.558 74.6185 123.43 74.0905 123.174 73.6425C122.929 73.1945 122.603 72.8531 122.198 72.6185C121.793 72.3838 121.355 72.2665 120.886 72.2665C120.417 72.2665 119.979 72.3838 119.574 72.6185C119.169 72.8425 118.838 73.1785 118.582 73.6265C118.337 74.0638 118.214 74.5865 118.214 75.1945C118.214 75.8025 118.337 76.3358 118.582 76.7945C118.838 77.2531 119.169 77.6051 119.574 77.8505C119.99 78.0851 120.427 78.2025 120.886 78.2025C121.355 78.2025 121.793 78.0851 122.198 77.8505C122.603 77.6158 122.929 77.2745 123.174 76.8265C123.43 76.3678 123.558 75.8345 123.558 75.2265ZM132.242 70.6825C132.935 70.6825 133.554 70.8265 134.098 71.1145C134.652 71.4025 135.084 71.8291 135.394 72.3945C135.703 72.9598 135.858 73.6425 135.858 74.4425V79.6425H134.05V74.7145C134.05 73.9251 133.852 73.3225 133.458 72.9065C133.063 72.4798 132.524 72.2665 131.842 72.2665C131.159 72.2665 130.615 72.4798 130.21 72.9065C129.815 73.3225 129.618 73.9251 129.618 74.7145V79.6425H127.794V70.8265H129.618V71.8345C129.916 71.4718 130.295 71.1891 130.754 70.9865C131.223 70.7838 131.719 70.6825 132.242 70.6825Z" fill="#28293E"/>
<path d="M165 66.1425L165.622 73.5202L173 74.1425L165.622 74.7647L165 82.1425L164.378 74.7647L157 74.1425L164.378 73.5202L165 66.1425Z" fill="#28293E"/>
<path d="M184.008 68.5225V75.6105C184.008 76.4531 184.227 77.0878 184.664 77.5145C185.112 77.9411 185.731 78.1545 186.52 78.1545C187.32 78.1545 187.939 77.9411 188.376 77.5145C188.824 77.0878 189.048 76.4531 189.048 75.6105V68.5225H190.872V75.5785C190.872 76.4851 190.675 77.2531 190.28 77.8825C189.885 78.5118 189.357 78.9811 188.696 79.2905C188.035 79.5998 187.304 79.7545 186.504 79.7545C185.704 79.7545 184.973 79.5998 184.312 79.2905C183.661 78.9811 183.144 78.5118 182.76 77.8825C182.376 77.2531 182.184 76.4851 182.184 75.5785V68.5225H184.008ZM195.071 68.5225V79.6425H193.247V68.5225H195.071ZM205.254 68.5225C206.438 68.5225 207.473 68.7518 208.358 69.2105C209.254 69.6585 209.942 70.3091 210.422 71.1625C210.913 72.0051 211.158 72.9918 211.158 74.1225C211.158 75.2531 210.913 76.2345 210.422 77.0665C209.942 77.8985 209.254 78.5385 208.358 78.9865C207.473 79.4238 206.438 79.6425 205.254 79.6425H201.622V68.5225H205.254ZM205.254 78.1545C206.555 78.1545 207.553 77.8025 208.246 77.0985C208.939 76.3945 209.286 75.4025 209.286 74.1225C209.286 72.8318 208.939 71.8238 208.246 71.0985C207.553 70.3731 206.555 70.0105 205.254 70.0105H203.446V78.1545H205.254ZM221.046 75.0185C221.046 75.3491 221.024 75.6478 220.982 75.9145H214.246C214.299 76.6185 214.56 77.1838 215.03 77.6105C215.499 78.0371 216.075 78.2505 216.758 78.2505C217.739 78.2505 218.432 77.8398 218.838 77.0185H220.806C220.539 77.8291 220.054 78.4958 219.35 79.0185C218.656 79.5305 217.792 79.7865 216.758 79.7865C215.915 79.7865 215.158 79.5998 214.486 79.2265C213.824 78.8425 213.302 78.3091 212.918 77.6265C212.544 76.9331 212.358 76.1331 212.358 75.2265C212.358 74.3198 212.539 73.5251 212.902 72.8425C213.275 72.1491 213.792 71.6158 214.454 71.2425C215.126 70.8691 215.894 70.6825 216.758 70.6825C217.59 70.6825 218.331 70.8638 218.982 71.2265C219.632 71.5891 220.139 72.1011 220.502 72.7625C220.864 73.4131 221.046 74.1651 221.046 75.0185ZM219.142 74.4425C219.131 73.7705 218.891 73.2318 218.422 72.8265C217.952 72.4211 217.371 72.2185 216.678 72.2185C216.048 72.2185 215.51 72.4211 215.062 72.8265C214.614 73.2211 214.347 73.7598 214.262 74.4425H219.142ZM226.041 79.7865C225.347 79.7865 224.723 79.6638 224.169 79.4185C223.625 79.1625 223.193 78.8211 222.873 78.3945C222.553 77.9571 222.382 77.4718 222.361 76.9385H224.249C224.281 77.3118 224.457 77.6265 224.777 77.8825C225.107 78.1278 225.518 78.2505 226.009 78.2505C226.521 78.2505 226.915 78.1545 227.193 77.9625C227.481 77.7598 227.625 77.5038 227.625 77.1945C227.625 76.8638 227.465 76.6185 227.145 76.4585C226.835 76.2985 226.339 76.1225 225.657 75.9305C224.995 75.7491 224.457 75.5731 224.041 75.4025C223.625 75.2318 223.262 74.9705 222.953 74.6185C222.654 74.2665 222.505 73.8025 222.505 73.2265C222.505 72.7571 222.643 72.3305 222.921 71.9465C223.198 71.5518 223.593 71.2425 224.105 71.0185C224.627 70.7945 225.225 70.6825 225.897 70.6825C226.899 70.6825 227.705 70.9385 228.313 71.4505C228.931 71.9518 229.262 72.6398 229.305 73.5145H227.481C227.449 73.1198 227.289 72.8051 227.001 72.5705C226.713 72.3358 226.323 72.2185 225.833 72.2185C225.353 72.2185 224.985 72.3091 224.729 72.4905C224.473 72.6718 224.345 72.9118 224.345 73.2105C224.345 73.4451 224.43 73.6425 224.601 73.8025C224.771 73.9625 224.979 74.0905 225.225 74.1865C225.47 74.2718 225.833 74.3838 226.313 74.5225C226.953 74.6931 227.475 74.8691 227.881 75.0505C228.297 75.2211 228.654 75.4771 228.953 75.8185C229.251 76.1598 229.406 76.6131 229.417 77.1785C229.417 77.6798 229.278 78.1278 229.001 78.5225C228.723 78.9171 228.329 79.2265 227.817 79.4505C227.315 79.6745 226.723 79.7865 226.041 79.7865ZM232.316 69.6585C231.985 69.6585 231.708 69.5465 231.484 69.3225C231.26 69.0985 231.148 68.8211 231.148 68.4905C231.148 68.1598 231.26 67.8825 231.484 67.6585C231.708 67.4345 231.985 67.3225 232.316 67.3225C232.636 67.3225 232.908 67.4345 233.132 67.6585C233.356 67.8825 233.468 68.1598 233.468 68.4905C233.468 68.8211 233.356 69.0985 233.132 69.3225C232.908 69.5465 232.636 69.6585 232.316 69.6585ZM233.212 70.8265V79.6425H231.388V70.8265H233.212ZM239.158 70.6825C239.841 70.6825 240.444 70.8211 240.966 71.0985C241.5 71.3651 241.916 71.7011 242.214 72.1065V70.8265H244.054V79.7865C244.054 80.5971 243.884 81.3171 243.542 81.9465C243.201 82.5865 242.705 83.0878 242.054 83.4505C241.414 83.8131 240.646 83.9945 239.75 83.9945C238.556 83.9945 237.564 83.7118 236.774 83.1465C235.985 82.5918 235.537 81.8345 235.43 80.8745H237.238C237.377 81.3331 237.67 81.7011 238.118 81.9785C238.577 82.2665 239.121 82.4105 239.75 82.4105C240.486 82.4105 241.078 82.1865 241.526 81.7385C241.985 81.2905 242.214 80.6398 242.214 79.7865V78.3145C241.905 78.7305 241.484 79.0825 240.95 79.3705C240.428 79.6478 239.83 79.7865 239.158 79.7865C238.39 79.7865 237.686 79.5945 237.046 79.2105C236.417 78.8158 235.916 78.2718 235.542 77.5785C235.18 76.8745 234.998 76.0798 234.998 75.1945C234.998 74.3091 235.18 73.5251 235.542 72.8425C235.916 72.1598 236.417 71.6318 237.046 71.2585C237.686 70.8745 238.39 70.6825 239.158 70.6825ZM242.214 75.2265C242.214 74.6185 242.086 74.0905 241.83 73.6425C241.585 73.1945 241.26 72.8531 240.854 72.6185C240.449 72.3838 240.012 72.2665 239.542 72.2665C239.073 72.2665 238.636 72.3838 238.23 72.6185C237.825 72.8425 237.494 73.1785 237.238 73.6265C236.993 74.0638 236.87 74.5865 236.87 75.1945C236.87 75.8025 236.993 76.3358 237.238 76.7945C237.494 77.2531 237.825 77.6051 238.23 77.8505C238.646 78.0851 239.084 78.2025 239.542 78.2025C240.012 78.2025 240.449 78.0851 240.854 77.8505C241.26 77.6158 241.585 77.2745 241.83 76.8265C242.086 76.3678 242.214 75.8345 242.214 75.2265ZM250.898 70.6825C251.591 70.6825 252.21 70.8265 252.754 71.1145C253.309 71.4025 253.741 71.8291 254.05 72.3945C254.359 72.9598 254.514 73.6425 254.514 74.4425V79.6425H252.706V74.7145C252.706 73.9251 252.509 73.3225 252.114 72.9065C251.719 72.4798 251.181 72.2665 250.498 72.2665C249.815 72.2665 249.271 72.4798 248.866 72.9065C248.471 73.3225 248.274 73.9251 248.274 74.7145V79.6425H246.45V70.8265H248.274V71.8345C248.573 71.4718 248.951 71.1891 249.41 70.9865C249.879 70.7838 250.375 70.6825 250.898 70.6825Z" fill="#28293E"/>
<path d="M40 107.142L40.6223 114.52L48 115.142L40.6223 115.765L40 123.142L39.3777 115.765L32 115.142L39.3777 114.52L40 107.142Z" fill="#28293E"/>
<path d="M60.832 109.522C62.016 109.522 63.0507 109.752 63.936 110.21C64.832 110.658 65.52 111.309 66 112.162C66.4907 113.005 66.736 113.992 66.736 115.122C66.736 116.253 66.4907 117.234 66 118.066C65.52 118.898 64.832 119.538 63.936 119.986C63.0507 120.424 62.016 120.642 60.832 120.642H57.2V109.522H60.832ZM60.832 119.154C62.1333 119.154 63.1307 118.802 63.824 118.098C64.5173 117.394 64.864 116.402 64.864 115.122C64.864 113.832 64.5173 112.824 63.824 112.098C63.1307 111.373 62.1333 111.01 60.832 111.01H59.024V119.154H60.832ZM76.6238 116.018C76.6238 116.349 76.6024 116.648 76.5598 116.914H69.8238C69.8771 117.618 70.1384 118.184 70.6078 118.61C71.0771 119.037 71.6531 119.25 72.3358 119.25C73.3171 119.25 74.0104 118.84 74.4158 118.018H76.3837C76.1171 118.829 75.6318 119.496 74.9278 120.018C74.2344 120.53 73.3704 120.786 72.3358 120.786C71.4931 120.786 70.7358 120.6 70.0638 120.226C69.4024 119.842 68.8798 119.309 68.4958 118.626C68.1224 117.933 67.9358 117.133 67.9358 116.226C67.9358 115.32 68.1171 114.525 68.4798 113.842C68.8531 113.149 69.3704 112.616 70.0318 112.242C70.7038 111.869 71.4718 111.682 72.3358 111.682C73.1678 111.682 73.9091 111.864 74.5598 112.226C75.2104 112.589 75.7171 113.101 76.0798 113.762C76.4424 114.413 76.6238 115.165 76.6238 116.018ZM74.7198 115.442C74.7091 114.77 74.4691 114.232 73.9998 113.826C73.5304 113.421 72.9491 113.218 72.2558 113.218C71.6264 113.218 71.0878 113.421 70.6398 113.826C70.1918 114.221 69.9251 114.76 69.8398 115.442H74.7198ZM81.6188 120.786C80.9254 120.786 80.3014 120.664 79.7468 120.418C79.2028 120.162 78.7708 119.821 78.4508 119.394C78.1308 118.957 77.9601 118.472 77.9388 117.938H79.8268C79.8588 118.312 80.0348 118.626 80.3548 118.882C80.6854 119.128 81.0961 119.25 81.5868 119.25C82.0988 119.25 82.4934 119.154 82.7708 118.962C83.0588 118.76 83.2028 118.504 83.2028 118.194C83.2028 117.864 83.0428 117.618 82.7228 117.458C82.4134 117.298 81.9174 117.122 81.2348 116.93C80.5734 116.749 80.0348 116.573 79.6188 116.402C79.2028 116.232 78.8401 115.97 78.5308 115.618C78.2321 115.266 78.0828 114.802 78.0828 114.226C78.0828 113.757 78.2214 113.33 78.4988 112.946C78.7761 112.552 79.1708 112.242 79.6828 112.018C80.2054 111.794 80.8028 111.682 81.4748 111.682C82.4774 111.682 83.2828 111.938 83.8908 112.45C84.5094 112.952 84.8401 113.64 84.8828 114.514H83.0588C83.0268 114.12 82.8668 113.805 82.5788 113.57C82.2908 113.336 81.9014 113.218 81.4108 113.218C80.9308 113.218 80.5628 113.309 80.3068 113.49C80.0508 113.672 79.9228 113.912 79.9228 114.21C79.9228 114.445 80.0081 114.642 80.1788 114.802C80.3494 114.962 80.5574 115.09 80.8028 115.186C81.0481 115.272 81.4108 115.384 81.8908 115.522C82.5308 115.693 83.0534 115.869 83.4588 116.05C83.8748 116.221 84.2321 116.477 84.5308 116.818C84.8294 117.16 84.9841 117.613 84.9948 118.178C84.9948 118.68 84.8561 119.128 84.5788 119.522C84.3014 119.917 83.9068 120.226 83.3948 120.45C82.8934 120.674 82.3014 120.786 81.6188 120.786ZM87.8936 110.658C87.563 110.658 87.2856 110.546 87.0616 110.322C86.8376 110.098 86.7256 109.821 86.7256 109.49C86.7256 109.16 86.8376 108.882 87.0616 108.658C87.2856 108.434 87.563 108.322 87.8936 108.322C88.2136 108.322 88.4856 108.434 88.7096 108.658C88.9336 108.882 89.0456 109.16 89.0456 109.49C89.0456 109.821 88.9336 110.098 88.7096 110.322C88.4856 110.546 88.2136 110.658 87.8936 110.658ZM88.7896 111.826V120.642H86.9656V111.826H88.7896ZM94.7364 111.682C95.419 111.682 96.0217 111.821 96.5444 112.098C97.0777 112.365 97.4937 112.701 97.7924 113.106V111.826H99.6324V120.786C99.6324 121.597 99.4617 122.317 99.1204 122.946C98.779 123.586 98.283 124.088 97.6324 124.45C96.9924 124.813 96.2244 124.994 95.3284 124.994C94.1337 124.994 93.1417 124.712 92.3524 124.146C91.563 123.592 91.115 122.834 91.0084 121.874H92.8164C92.955 122.333 93.2484 122.701 93.6964 122.978C94.155 123.266 94.699 123.41 95.3284 123.41C96.0644 123.41 96.6564 123.186 97.1044 122.738C97.563 122.29 97.7924 121.64 97.7924 120.786V119.314C97.483 119.73 97.0617 120.082 96.5284 120.37C96.0057 120.648 95.4084 120.786 94.7364 120.786C93.9684 120.786 93.2644 120.594 92.6244 120.21C91.995 119.816 91.4937 119.272 91.1204 118.578C90.7577 117.874 90.5764 117.08 90.5764 116.194C90.5764 115.309 90.7577 114.525 91.1204 113.842C91.4937 113.16 91.995 112.632 92.6244 112.258C93.2644 111.874 93.9684 111.682 94.7364 111.682ZM97.7924 116.226C97.7924 115.618 97.6644 115.09 97.4084 114.642C97.163 114.194 96.8377 113.853 96.4324 113.618C96.027 113.384 95.5897 113.266 95.1204 113.266C94.651 113.266 94.2137 113.384 93.8084 113.618C93.403 113.842 93.0724 114.178 92.8164 114.626C92.571 115.064 92.4484 115.586 92.4484 116.194C92.4484 116.802 92.571 117.336 92.8164 117.794C93.0724 118.253 93.403 118.605 93.8084 118.85C94.2244 119.085 94.6617 119.202 95.1204 119.202C95.5897 119.202 96.027 119.085 96.4324 118.85C96.8377 118.616 97.163 118.274 97.4084 117.826C97.6644 117.368 97.7924 116.834 97.7924 116.226ZM106.476 111.682C107.169 111.682 107.788 111.826 108.332 112.114C108.887 112.402 109.319 112.829 109.628 113.394C109.937 113.96 110.092 114.642 110.092 115.442V120.642H108.284V115.714C108.284 114.925 108.087 114.322 107.692 113.906C107.297 113.48 106.759 113.266 106.076 113.266C105.393 113.266 104.849 113.48 104.444 113.906C104.049 114.322 103.852 114.925 103.852 115.714V120.642H102.028V111.826H103.852V112.834C104.151 112.472 104.529 112.189 104.988 111.986C105.457 111.784 105.953 111.682 106.476 111.682ZM119.775 120.786C119.082 120.786 118.458 120.664 117.903 120.418C117.359 120.162 116.927 119.821 116.607 119.394C116.287 118.957 116.116 118.472 116.095 117.938H117.983C118.015 118.312 118.191 118.626 118.511 118.882C118.842 119.128 119.252 119.25 119.743 119.25C120.255 119.25 120.65 119.154 120.927 118.962C121.215 118.76 121.359 118.504 121.359 118.194C121.359 117.864 121.199 117.618 120.879 117.458C120.57 117.298 120.074 117.122 119.391 116.93C118.73 116.749 118.191 116.573 117.775 116.402C117.359 116.232 116.996 115.97 116.687 115.618C116.388 115.266 116.239 114.802 116.239 114.226C116.239 113.757 116.378 113.33 116.655 112.946C116.932 112.552 117.327 112.242 117.839 112.018C118.362 111.794 118.959 111.682 119.631 111.682C120.634 111.682 121.439 111.938 122.047 112.45C122.666 112.952 122.996 113.64 123.039 114.514H121.215C121.183 114.12 121.023 113.805 120.735 113.57C120.447 113.336 120.058 113.218 119.567 113.218C119.087 113.218 118.719 113.309 118.463 113.49C118.207 113.672 118.079 113.912 118.079 114.21C118.079 114.445 118.164 114.642 118.335 114.802C118.506 114.962 118.714 115.09 118.959 115.186C119.204 115.272 119.567 115.384 120.047 115.522C120.687 115.693 121.21 115.869 121.615 116.05C122.031 116.221 122.388 116.477 122.687 116.818C122.986 117.16 123.14 117.613 123.151 118.178C123.151 118.68 123.012 119.128 122.735 119.522C122.458 119.917 122.063 120.226 121.551 120.45C121.05 120.674 120.458 120.786 119.775 120.786ZM133.058 111.826L127.65 124.786H125.762L127.554 120.498L124.082 111.826H126.114L128.594 118.546L131.17 111.826H133.058ZM137.634 120.786C136.941 120.786 136.317 120.664 135.762 120.418C135.218 120.162 134.786 119.821 134.466 119.394C134.146 118.957 133.976 118.472 133.954 117.938H135.842C135.874 118.312 136.05 118.626 136.37 118.882C136.701 119.128 137.112 119.25 137.602 119.25C138.114 119.25 138.509 119.154 138.786 118.962C139.074 118.76 139.218 118.504 139.218 118.194C139.218 117.864 139.058 117.618 138.738 117.458C138.429 117.298 137.933 117.122 137.25 116.93C136.589 116.749 136.05 116.573 135.634 116.402C135.218 116.232 134.856 115.97 134.546 115.618C134.248 115.266 134.098 114.802 134.098 114.226C134.098 113.757 134.237 113.33 134.514 112.946C134.792 112.552 135.186 112.242 135.698 112.018C136.221 111.794 136.818 111.682 137.49 111.682C138.493 111.682 139.298 111.938 139.906 112.45C140.525 112.952 140.856 113.64 140.898 114.514H139.074C139.042 114.12 138.882 113.805 138.594 113.57C138.306 113.336 137.917 113.218 137.426 113.218C136.946 113.218 136.578 113.309 136.322 113.49C136.066 113.672 135.938 113.912 135.938 114.21C135.938 114.445 136.024 114.642 136.194 114.802C136.365 114.962 136.573 115.09 136.818 115.186C137.064 115.272 137.426 115.384 137.906 115.522C138.546 115.693 139.069 115.869 139.474 116.05C139.89 116.221 140.248 116.477 140.546 116.818C140.845 117.16 141 117.613 141.01 118.178C141.01 118.68 140.872 119.128 140.594 119.522C140.317 119.917 139.922 120.226 139.41 120.45C138.909 120.674 138.317 120.786 137.634 120.786ZM145.109 113.314V118.194C145.109 118.525 145.184 118.765 145.333 118.914C145.493 119.053 145.76 119.122 146.133 119.122H147.253V120.642H145.813C144.992 120.642 144.363 120.45 143.925 120.066C143.488 119.682 143.269 119.058 143.269 118.194V113.314H142.229V111.826H143.269V109.634H145.109V111.826H147.253V113.314H145.109ZM157.014 116.018C157.014 116.349 156.993 116.648 156.95 116.914H150.214C150.268 117.618 150.529 118.184 150.998 118.61C151.468 119.037 152.044 119.25 152.726 119.25C153.708 119.25 154.401 118.84 154.806 118.018H156.774C156.508 118.829 156.022 119.496 155.318 120.018C154.625 120.53 153.761 120.786 152.726 120.786C151.884 120.786 151.126 120.6 150.454 120.226C149.793 119.842 149.27 119.309 148.886 118.626C148.513 117.933 148.326 117.133 148.326 116.226C148.326 115.32 148.508 114.525 148.87 113.842C149.244 113.149 149.761 112.616 150.422 112.242C151.094 111.869 151.862 111.682 152.726 111.682C153.558 111.682 154.3 111.864 154.95 112.226C155.601 112.589 156.108 113.101 156.47 113.762C156.833 114.413 157.014 115.165 157.014 116.018ZM155.11 115.442C155.1 114.77 154.86 114.232 154.39 113.826C153.921 113.421 153.34 113.218 152.646 113.218C152.017 113.218 151.478 113.421 151.03 113.826C150.582 114.221 150.316 114.76 150.23 115.442H155.11ZM169.481 111.682C170.175 111.682 170.793 111.826 171.337 112.114C171.892 112.402 172.324 112.829 172.633 113.394C172.953 113.96 173.113 114.642 173.113 115.442V120.642H171.305V115.714C171.305 114.925 171.108 114.322 170.713 113.906C170.319 113.48 169.78 113.266 169.097 113.266C168.415 113.266 167.871 113.48 167.465 113.906C167.071 114.322 166.873 114.925 166.873 115.714V120.642H165.065V115.714C165.065 114.925 164.868 114.322 164.473 113.906C164.079 113.48 163.54 113.266 162.857 113.266C162.175 113.266 161.631 113.48 161.225 113.906C160.831 114.322 160.633 114.925 160.633 115.714V120.642H158.809V111.826H160.633V112.834C160.932 112.472 161.311 112.189 161.769 111.986C162.228 111.784 162.719 111.682 163.241 111.682C163.945 111.682 164.575 111.832 165.129 112.13C165.684 112.429 166.111 112.861 166.409 113.426C166.676 112.893 167.092 112.472 167.657 112.162C168.223 111.842 168.831 111.682 169.481 111.682Z" fill="#28293E"/>
<path d="M203 107.142L203.622 114.52L211 115.142L203.622 115.765L203 123.142L202.378 115.765L195 115.142L202.378 114.52L203 107.142Z" fill="#28293E"/>
<path d="M227.976 112.834C227.976 113.4 227.843 113.933 227.576 114.434C227.309 114.936 226.883 115.346 226.296 115.666C225.709 115.976 224.957 116.13 224.04 116.13H222.024V120.642H220.2V109.522H224.04C224.893 109.522 225.613 109.672 226.2 109.97C226.797 110.258 227.24 110.653 227.528 111.154C227.827 111.656 227.976 112.216 227.976 112.834ZM224.04 114.642C224.733 114.642 225.251 114.488 225.592 114.178C225.933 113.858 226.104 113.41 226.104 112.834C226.104 111.618 225.416 111.01 224.04 111.01H222.024V114.642H224.04ZM231.54 113.106C231.806 112.658 232.158 112.312 232.596 112.066C233.044 111.81 233.572 111.682 234.18 111.682V113.57H233.716C233.001 113.57 232.457 113.752 232.084 114.114C231.721 114.477 231.54 115.106 231.54 116.002V120.642H229.716V111.826H231.54V113.106ZM239.68 120.786C238.848 120.786 238.096 120.6 237.424 120.226C236.752 119.842 236.224 119.309 235.84 118.626C235.456 117.933 235.264 117.133 235.264 116.226C235.264 115.33 235.462 114.536 235.856 113.842C236.251 113.149 236.79 112.616 237.472 112.242C238.155 111.869 238.918 111.682 239.76 111.682C240.603 111.682 241.366 111.869 242.048 112.242C242.731 112.616 243.27 113.149 243.664 113.842C244.059 114.536 244.256 115.33 244.256 116.226C244.256 117.122 244.054 117.917 243.648 118.61C243.243 119.304 242.688 119.842 241.984 120.226C241.291 120.6 240.523 120.786 239.68 120.786ZM239.68 119.202C240.15 119.202 240.587 119.09 240.992 118.866C241.408 118.642 241.744 118.306 242 117.858C242.256 117.41 242.384 116.866 242.384 116.226C242.384 115.586 242.262 115.048 242.016 114.61C241.771 114.162 241.446 113.826 241.04 113.602C240.635 113.378 240.198 113.266 239.728 113.266C239.259 113.266 238.822 113.378 238.416 113.602C238.022 113.826 237.707 114.162 237.472 114.61C237.238 115.048 237.12 115.586 237.12 116.226C237.12 117.176 237.36 117.912 237.84 118.434C238.331 118.946 238.944 119.202 239.68 119.202ZM248.187 113.314V118.194C248.187 118.525 248.262 118.765 248.411 118.914C248.571 119.053 248.838 119.122 249.211 119.122H250.331V120.642H248.891C248.07 120.642 247.441 120.45 247.003 120.066C246.566 119.682 246.347 119.058 246.347 118.194V113.314H245.307V111.826H246.347V109.634H248.187V111.826H250.331V113.314H248.187ZM255.837 120.786C255.005 120.786 254.253 120.6 253.581 120.226C252.909 119.842 252.381 119.309 251.997 118.626C251.613 117.933 251.421 117.133 251.421 116.226C251.421 115.33 251.618 114.536 252.013 113.842C252.407 113.149 252.946 112.616 253.629 112.242C254.311 111.869 255.074 111.682 255.917 111.682C256.759 111.682 257.522 111.869 258.205 112.242C258.887 112.616 259.426 113.149 259.821 113.842C260.215 114.536 260.413 115.33 260.413 116.226C260.413 117.122 260.21 117.917 259.805 118.61C259.399 119.304 258.845 119.842 258.141 120.226C257.447 120.6 256.679 120.786 255.837 120.786ZM255.837 119.202C256.306 119.202 256.743 119.09 257.149 118.866C257.565 118.642 257.901 118.306 258.157 117.858C258.413 117.41 258.541 116.866 258.541 116.226C258.541 115.586 258.418 115.048 258.173 114.61C257.927 114.162 257.602 113.826 257.197 113.602C256.791 113.378 256.354 113.266 255.885 113.266C255.415 113.266 254.978 113.378 254.573 113.602C254.178 113.826 253.863 114.162 253.629 114.61C253.394 115.048 253.277 115.586 253.277 116.226C253.277 117.176 253.517 117.912 253.997 118.434C254.487 118.946 255.101 119.202 255.837 119.202ZM264.344 113.314V118.194C264.344 118.525 264.418 118.765 264.568 118.914C264.728 119.053 264.994 119.122 265.368 119.122H266.488V120.642H265.048C264.226 120.642 263.597 120.45 263.16 120.066C262.722 119.682 262.504 119.058 262.504 118.194V113.314H261.464V111.826H262.504V109.634H264.344V111.826H266.488V113.314H264.344ZM276.105 111.826L270.697 124.786H268.809L270.601 120.498L267.129 111.826H269.161L271.641 118.546L274.217 111.826H276.105ZM279.305 113.122C279.615 112.717 280.036 112.376 280.569 112.098C281.103 111.821 281.705 111.682 282.377 111.682C283.145 111.682 283.844 111.874 284.473 112.258C285.113 112.632 285.615 113.16 285.977 113.842C286.34 114.525 286.521 115.309 286.521 116.194C286.521 117.08 286.34 117.874 285.977 118.578C285.615 119.272 285.113 119.816 284.473 120.21C283.844 120.594 283.145 120.786 282.377 120.786C281.705 120.786 281.108 120.653 280.585 120.386C280.063 120.109 279.636 119.768 279.305 119.362V124.834H277.481V111.826H279.305V113.122ZM284.665 116.194C284.665 115.586 284.537 115.064 284.281 114.626C284.036 114.178 283.705 113.842 283.289 113.618C282.884 113.384 282.447 113.266 281.977 113.266C281.519 113.266 281.081 113.384 280.665 113.618C280.26 113.853 279.929 114.194 279.673 114.642C279.428 115.09 279.305 115.618 279.305 116.226C279.305 116.834 279.428 117.368 279.673 117.826C279.929 118.274 280.26 118.616 280.665 118.85C281.081 119.085 281.519 119.202 281.977 119.202C282.447 119.202 282.884 119.085 283.289 118.85C283.705 118.605 284.036 118.253 284.281 117.794C284.537 117.336 284.665 116.802 284.665 116.194ZM296.405 116.018C296.405 116.349 296.384 116.648 296.341 116.914H289.605C289.658 117.618 289.92 118.184 290.389 118.61C290.858 119.037 291.434 119.25 292.117 119.25C293.098 119.25 293.792 118.84 294.197 118.018H296.165C295.898 118.829 295.413 119.496 294.709 120.018C294.016 120.53 293.152 120.786 292.117 120.786C291.274 120.786 290.517 120.6 289.845 120.226C289.184 119.842 288.661 119.309 288.277 118.626C287.904 117.933 287.717 117.133 287.717 116.226C287.717 115.32 287.898 114.525 288.261 113.842C288.634 113.149 289.152 112.616 289.813 112.242C290.485 111.869 291.253 111.682 292.117 111.682C292.949 111.682 293.69 111.864 294.341 112.226C294.992 112.589 295.498 113.101 295.861 113.762C296.224 114.413 296.405 115.165 296.405 116.018ZM294.501 115.442C294.49 114.77 294.25 114.232 293.781 113.826C293.312 113.421 292.73 113.218 292.037 113.218C291.408 113.218 290.869 113.421 290.421 113.826C289.973 114.221 289.706 114.76 289.621 115.442H294.501Z" fill="#28293E"/>
<path d="M40 148.142L40.6223 155.52L48 156.142L40.6223 156.765L40 164.142L39.3777 156.765L32 156.142L39.3777 155.52L40 148.142Z" fill="#28293E"/>
<path d="M60.864 161.754C60.1173 161.754 59.4453 161.626 58.848 161.37C58.2507 161.104 57.7813 160.73 57.44 160.25C57.0987 159.77 56.928 159.21 56.928 158.57H58.88C58.9227 159.05 59.1093 159.445 59.44 159.754C59.7813 160.064 60.256 160.218 60.864 160.218C61.4933 160.218 61.984 160.069 62.336 159.77C62.688 159.461 62.864 159.066 62.864 158.586C62.864 158.213 62.752 157.909 62.528 157.674C62.3147 157.44 62.0427 157.258 61.712 157.13C61.392 157.002 60.944 156.864 60.368 156.714C59.6427 156.522 59.0507 156.33 58.592 156.138C58.144 155.936 57.76 155.626 57.44 155.21C57.12 154.794 56.96 154.24 56.96 153.546C56.96 152.906 57.12 152.346 57.44 151.866C57.76 151.386 58.208 151.018 58.784 150.762C59.36 150.506 60.0267 150.378 60.784 150.378C61.8613 150.378 62.7413 150.65 63.424 151.194C64.1173 151.728 64.5013 152.464 64.576 153.402H62.56C62.528 152.997 62.336 152.65 61.984 152.362C61.632 152.074 61.168 151.93 60.592 151.93C60.0693 151.93 59.6427 152.064 59.312 152.33C58.9813 152.597 58.816 152.981 58.816 153.482C58.816 153.824 58.9173 154.106 59.12 154.33C59.3333 154.544 59.6 154.714 59.92 154.842C60.24 154.97 60.6773 155.109 61.232 155.258C61.968 155.461 62.5653 155.664 63.024 155.866C63.4933 156.069 63.888 156.384 64.208 156.81C64.5387 157.226 64.704 157.786 64.704 158.49C64.704 159.056 64.5493 159.589 64.24 160.09C63.9413 160.592 63.4987 160.997 62.912 161.306C62.336 161.605 61.6533 161.754 60.864 161.754ZM70.6803 161.786C69.8483 161.786 69.0963 161.6 68.4243 161.226C67.7523 160.842 67.2243 160.309 66.8403 159.626C66.4563 158.933 66.2643 158.133 66.2643 157.226C66.2643 156.33 66.4616 155.536 66.8563 154.842C67.2509 154.149 67.7896 153.616 68.4723 153.242C69.1549 152.869 69.9176 152.682 70.7603 152.682C71.6029 152.682 72.3656 152.869 73.0483 153.242C73.7309 153.616 74.2696 154.149 74.6643 154.842C75.0589 155.536 75.2563 156.33 75.2563 157.226C75.2563 158.122 75.0536 158.917 74.6483 159.61C74.2429 160.304 73.6883 160.842 72.9843 161.226C72.2909 161.6 71.5229 161.786 70.6803 161.786ZM70.6803 160.202C71.1496 160.202 71.5869 160.09 71.9923 159.866C72.4083 159.642 72.7443 159.306 73.0003 158.858C73.2563 158.41 73.3843 157.866 73.3843 157.226C73.3843 156.586 73.2616 156.048 73.0163 155.61C72.7709 155.162 72.4456 154.826 72.0403 154.602C71.6349 154.378 71.1976 154.266 70.7283 154.266C70.2589 154.266 69.8216 154.378 69.4163 154.602C69.0216 154.826 68.7069 155.162 68.4723 155.61C68.2376 156.048 68.1203 156.586 68.1203 157.226C68.1203 158.176 68.3603 158.912 68.8403 159.434C69.3309 159.946 69.9443 160.202 70.6803 160.202ZM76.4514 157.226C76.4514 156.32 76.6327 155.525 76.9954 154.842C77.3687 154.149 77.8807 153.616 78.5314 153.242C79.182 152.869 79.9287 152.682 80.7714 152.682C81.838 152.682 82.718 152.938 83.4114 153.45C84.1154 153.952 84.59 154.672 84.8354 155.61H82.8674C82.7074 155.173 82.4514 154.832 82.0994 154.586C81.7474 154.341 81.3047 154.218 80.7714 154.218C80.0247 154.218 79.4274 154.485 78.9794 155.018C78.542 155.541 78.3234 156.277 78.3234 157.226C78.3234 158.176 78.542 158.917 78.9794 159.45C79.4274 159.984 80.0247 160.25 80.7714 160.25C81.8274 160.25 82.526 159.786 82.8674 158.858H84.8354C84.5794 159.754 84.0994 160.469 83.3954 161.002C82.6914 161.525 81.8167 161.786 80.7714 161.786C79.9287 161.786 79.182 161.6 78.5314 161.226C77.8807 160.842 77.3687 160.309 76.9954 159.626C76.6327 158.933 76.4514 158.133 76.4514 157.226ZM87.5811 151.658C87.2505 151.658 86.9731 151.546 86.7491 151.322C86.5251 151.098 86.4131 150.821 86.4131 150.49C86.4131 150.16 86.5251 149.882 86.7491 149.658C86.9731 149.434 87.2505 149.322 87.5811 149.322C87.9011 149.322 88.1731 149.434 88.3971 149.658C88.6211 149.882 88.7331 150.16 88.7331 150.49C88.7331 150.821 88.6211 151.098 88.3971 151.322C88.1731 151.546 87.9011 151.658 87.5811 151.658ZM88.4771 152.826V161.642H86.6531V152.826H88.4771ZM90.2639 157.194C90.2639 156.309 90.4452 155.525 90.8079 154.842C91.1812 154.16 91.6825 153.632 92.3119 153.258C92.9519 152.874 93.6559 152.682 94.4239 152.682C95.1172 152.682 95.7199 152.821 96.2319 153.098C96.7545 153.365 97.1705 153.701 97.4799 154.106V152.826H99.3199V161.642H97.4799V160.33C97.1705 160.746 96.7492 161.093 96.2159 161.37C95.6825 161.648 95.0745 161.786 94.3919 161.786C93.6345 161.786 92.9412 161.594 92.3119 161.21C91.6825 160.816 91.1812 160.272 90.8079 159.578C90.4452 158.874 90.2639 158.08 90.2639 157.194ZM97.4799 157.226C97.4799 156.618 97.3519 156.09 97.0959 155.642C96.8505 155.194 96.5252 154.853 96.1199 154.618C95.7145 154.384 95.2772 154.266 94.8079 154.266C94.3385 154.266 93.9012 154.384 93.4959 154.618C93.0905 154.842 92.7599 155.178 92.5039 155.626C92.2585 156.064 92.1359 156.586 92.1359 157.194C92.1359 157.802 92.2585 158.336 92.5039 158.794C92.7599 159.253 93.0905 159.605 93.4959 159.85C93.9119 160.085 94.3492 160.202 94.8079 160.202C95.2772 160.202 95.7145 160.085 96.1199 159.85C96.5252 159.616 96.8505 159.274 97.0959 158.826C97.3519 158.368 97.4799 157.834 97.4799 157.226ZM103.54 149.802V161.642H101.716V149.802H103.54ZM120.763 152.682C121.456 152.682 122.075 152.826 122.619 153.114C123.173 153.402 123.605 153.829 123.915 154.394C124.235 154.96 124.395 155.642 124.395 156.442V161.642H122.587V156.714C122.587 155.925 122.389 155.322 121.995 154.906C121.6 154.48 121.061 154.266 120.379 154.266C119.696 154.266 119.152 154.48 118.747 154.906C118.352 155.322 118.155 155.925 118.155 156.714V161.642H116.347V156.714C116.347 155.925 116.149 155.322 115.755 154.906C115.36 154.48 114.821 154.266 114.139 154.266C113.456 154.266 112.912 154.48 112.507 154.906C112.112 155.322 111.915 155.925 111.915 156.714V161.642H110.091V152.826H111.915V153.834C112.213 153.472 112.592 153.189 113.051 152.986C113.509 152.784 114 152.682 114.523 152.682C115.227 152.682 115.856 152.832 116.411 153.13C116.965 153.429 117.392 153.861 117.691 154.426C117.957 153.893 118.373 153.472 118.939 153.162C119.504 152.842 120.112 152.682 120.763 152.682ZM134.796 157.018C134.796 157.349 134.774 157.648 134.732 157.914H127.996C128.049 158.618 128.31 159.184 128.78 159.61C129.249 160.037 129.825 160.25 130.508 160.25C131.489 160.25 132.182 159.84 132.588 159.018H134.556C134.289 159.829 133.804 160.496 133.1 161.018C132.406 161.53 131.542 161.786 130.508 161.786C129.665 161.786 128.908 161.6 128.236 161.226C127.574 160.842 127.052 160.309 126.668 159.626C126.294 158.933 126.108 158.133 126.108 157.226C126.108 156.32 126.289 155.525 126.652 154.842C127.025 154.149 127.542 153.616 128.204 153.242C128.876 152.869 129.644 152.682 130.508 152.682C131.34 152.682 132.081 152.864 132.732 153.226C133.382 153.589 133.889 154.101 134.252 154.762C134.614 155.413 134.796 156.165 134.796 157.018ZM132.892 156.442C132.881 155.77 132.641 155.232 132.172 154.826C131.702 154.421 131.121 154.218 130.428 154.218C129.798 154.218 129.26 154.421 128.812 154.826C128.364 155.221 128.097 155.76 128.012 156.442H132.892ZM135.983 157.194C135.983 156.309 136.164 155.525 136.527 154.842C136.9 154.16 137.401 153.632 138.031 153.258C138.671 152.874 139.38 152.682 140.159 152.682C140.735 152.682 141.3 152.81 141.855 153.066C142.42 153.312 142.868 153.642 143.199 154.058V149.802H145.039V161.642H143.199V160.314C142.9 160.741 142.484 161.093 141.951 161.37C141.428 161.648 140.825 161.786 140.143 161.786C139.375 161.786 138.671 161.594 138.031 161.21C137.401 160.816 136.9 160.272 136.527 159.578C136.164 158.874 135.983 158.08 135.983 157.194ZM143.199 157.226C143.199 156.618 143.071 156.09 142.815 155.642C142.569 155.194 142.244 154.853 141.839 154.618C141.433 154.384 140.996 154.266 140.527 154.266C140.057 154.266 139.62 154.384 139.215 154.618C138.809 154.842 138.479 155.178 138.223 155.626C137.977 156.064 137.855 156.586 137.855 157.194C137.855 157.802 137.977 158.336 138.223 158.794C138.479 159.253 138.809 159.605 139.215 159.85C139.631 160.085 140.068 160.202 140.527 160.202C140.996 160.202 141.433 160.085 141.839 159.85C142.244 159.616 142.569 159.274 142.815 158.826C143.071 158.368 143.199 157.834 143.199 157.226ZM148.362 151.658C148.032 151.658 147.754 151.546 147.53 151.322C147.306 151.098 147.194 150.821 147.194 150.49C147.194 150.16 147.306 149.882 147.53 149.658C147.754 149.434 148.032 149.322 148.362 149.322C148.682 149.322 148.954 149.434 149.178 149.658C149.402 149.882 149.514 150.16 149.514 150.49C149.514 150.821 149.402 151.098 149.178 151.322C148.954 151.546 148.682 151.658 148.362 151.658ZM149.258 152.826V161.642H147.434V152.826H149.258ZM151.045 157.194C151.045 156.309 151.226 155.525 151.589 154.842C151.962 154.16 152.464 153.632 153.093 153.258C153.733 152.874 154.437 152.682 155.205 152.682C155.898 152.682 156.501 152.821 157.013 153.098C157.536 153.365 157.952 153.701 158.261 154.106V152.826H160.101V161.642H158.261V160.33C157.952 160.746 157.53 161.093 156.997 161.37C156.464 161.648 155.856 161.786 155.173 161.786C154.416 161.786 153.722 161.594 153.093 161.21C152.464 160.816 151.962 160.272 151.589 159.578C151.226 158.874 151.045 158.08 151.045 157.194ZM158.261 157.226C158.261 156.618 158.133 156.09 157.877 155.642C157.632 155.194 157.306 154.853 156.901 154.618C156.496 154.384 156.058 154.266 155.589 154.266C155.12 154.266 154.682 154.384 154.277 154.618C153.872 154.842 153.541 155.178 153.285 155.626C153.04 156.064 152.917 156.586 152.917 157.194C152.917 157.802 153.04 158.336 153.285 158.794C153.541 159.253 153.872 159.605 154.277 159.85C154.693 160.085 155.13 160.202 155.589 160.202C156.058 160.202 156.496 160.085 156.901 159.85C157.306 159.616 157.632 159.274 157.877 158.826C158.133 158.368 158.261 157.834 158.261 157.226ZM166.045 157.194C166.045 156.309 166.226 155.525 166.589 154.842C166.962 154.16 167.464 153.632 168.093 153.258C168.733 152.874 169.442 152.682 170.221 152.682C170.797 152.682 171.362 152.81 171.917 153.066C172.482 153.312 172.93 153.642 173.261 154.058V149.802H175.101V161.642H173.261V160.314C172.962 160.741 172.546 161.093 172.013 161.37C171.49 161.648 170.888 161.786 170.205 161.786C169.437 161.786 168.733 161.594 168.093 161.21C167.464 160.816 166.962 160.272 166.589 159.578C166.226 158.874 166.045 158.08 166.045 157.194ZM173.261 157.226C173.261 156.618 173.133 156.09 172.877 155.642C172.632 155.194 172.306 154.853 171.901 154.618C171.496 154.384 171.058 154.266 170.589 154.266C170.12 154.266 169.682 154.384 169.277 154.618C168.872 154.842 168.541 155.178 168.285 155.626C168.04 156.064 167.917 156.586 167.917 157.194C167.917 157.802 168.04 158.336 168.285 158.794C168.541 159.253 168.872 159.605 169.277 159.85C169.693 160.085 170.13 160.202 170.589 160.202C171.058 160.202 171.496 160.085 171.901 159.85C172.306 159.616 172.632 159.274 172.877 158.826C173.133 158.368 173.261 157.834 173.261 157.226ZM185.577 157.018C185.577 157.349 185.556 157.648 185.513 157.914H178.777C178.83 158.618 179.092 159.184 179.561 159.61C180.03 160.037 180.606 160.25 181.289 160.25C182.27 160.25 182.964 159.84 183.369 159.018H185.337C185.07 159.829 184.585 160.496 183.881 161.018C183.188 161.53 182.324 161.786 181.289 161.786C180.446 161.786 179.689 161.6 179.017 161.226C178.356 160.842 177.833 160.309 177.449 159.626C177.076 158.933 176.889 158.133 176.889 157.226C176.889 156.32 177.07 155.525 177.433 154.842C177.806 154.149 178.324 153.616 178.985 153.242C179.657 152.869 180.425 152.682 181.289 152.682C182.121 152.682 182.862 152.864 183.513 153.226C184.164 153.589 184.67 154.101 185.033 154.762C185.396 155.413 185.577 156.165 185.577 157.018ZM183.673 156.442C183.662 155.77 183.422 155.232 182.953 154.826C182.484 154.421 181.902 154.218 181.209 154.218C180.58 154.218 180.041 154.421 179.593 154.826C179.145 155.221 178.878 155.76 178.793 156.442H183.673ZM190.572 161.786C189.879 161.786 189.255 161.664 188.7 161.418C188.156 161.162 187.724 160.821 187.404 160.394C187.084 159.957 186.913 159.472 186.892 158.938H188.78C188.812 159.312 188.988 159.626 189.308 159.882C189.639 160.128 190.049 160.25 190.54 160.25C191.052 160.25 191.447 160.154 191.724 159.962C192.012 159.76 192.156 159.504 192.156 159.194C192.156 158.864 191.996 158.618 191.676 158.458C191.367 158.298 190.871 158.122 190.188 157.93C189.527 157.749 188.988 157.573 188.572 157.402C188.156 157.232 187.793 156.97 187.484 156.618C187.185 156.266 187.036 155.802 187.036 155.226C187.036 154.757 187.175 154.33 187.452 153.946C187.729 153.552 188.124 153.242 188.636 153.018C189.159 152.794 189.756 152.682 190.428 152.682C191.431 152.682 192.236 152.938 192.844 153.45C193.463 153.952 193.793 154.64 193.836 155.514H192.012C191.98 155.12 191.82 154.805 191.532 154.57C191.244 154.336 190.855 154.218 190.364 154.218C189.884 154.218 189.516 154.309 189.26 154.49C189.004 154.672 188.876 154.912 188.876 155.21C188.876 155.445 188.961 155.642 189.132 155.802C189.303 155.962 189.511 156.09 189.756 156.186C190.001 156.272 190.364 156.384 190.844 156.522C191.484 156.693 192.007 156.869 192.412 157.05C192.828 157.221 193.185 157.477 193.484 157.818C193.783 158.16 193.937 158.613 193.948 159.178C193.948 159.68 193.809 160.128 193.532 160.522C193.255 160.917 192.86 161.226 192.348 161.45C191.847 161.674 191.255 161.786 190.572 161.786ZM196.847 151.658C196.516 151.658 196.239 151.546 196.015 151.322C195.791 151.098 195.679 150.821 195.679 150.49C195.679 150.16 195.791 149.882 196.015 149.658C196.239 149.434 196.516 149.322 196.847 149.322C197.167 149.322 197.439 149.434 197.663 149.658C197.887 149.882 197.999 150.16 197.999 150.49C197.999 150.821 197.887 151.098 197.663 151.322C197.439 151.546 197.167 151.658 196.847 151.658ZM197.743 152.826V161.642H195.919V152.826H197.743ZM203.69 152.682C204.372 152.682 204.975 152.821 205.498 153.098C206.031 153.365 206.447 153.701 206.746 154.106V152.826H208.586V161.786C208.586 162.597 208.415 163.317 208.074 163.946C207.732 164.586 207.236 165.088 206.586 165.45C205.946 165.813 205.178 165.994 204.282 165.994C203.087 165.994 202.095 165.712 201.306 165.146C200.516 164.592 200.068 163.834 199.962 162.874H201.77C201.908 163.333 202.202 163.701 202.65 163.978C203.108 164.266 203.652 164.41 204.282 164.41C205.018 164.41 205.61 164.186 206.058 163.738C206.516 163.29 206.746 162.64 206.746 161.786V160.314C206.436 160.73 206.015 161.082 205.482 161.37C204.959 161.648 204.362 161.786 203.69 161.786C202.922 161.786 202.218 161.594 201.578 161.21C200.948 160.816 200.447 160.272 200.074 159.578C199.711 158.874 199.53 158.08 199.53 157.194C199.53 156.309 199.711 155.525 200.074 154.842C200.447 154.16 200.948 153.632 201.578 153.258C202.218 152.874 202.922 152.682 203.69 152.682ZM206.746 157.226C206.746 156.618 206.618 156.09 206.362 155.642C206.116 155.194 205.791 154.853 205.386 154.618C204.98 154.384 204.543 154.266 204.074 154.266C203.604 154.266 203.167 154.384 202.762 154.618C202.356 154.842 202.026 155.178 201.77 155.626C201.524 156.064 201.402 156.586 201.402 157.194C201.402 157.802 201.524 158.336 201.77 158.794C202.026 159.253 202.356 159.605 202.762 159.85C203.178 160.085 203.615 160.202 204.074 160.202C204.543 160.202 204.98 160.085 205.386 159.85C205.791 159.616 206.116 159.274 206.362 158.826C206.618 158.368 206.746 157.834 206.746 157.226ZM215.429 152.682C216.123 152.682 216.741 152.826 217.285 153.114C217.84 153.402 218.272 153.829 218.581 154.394C218.891 154.96 219.045 155.642 219.045 156.442V161.642H217.237V156.714C217.237 155.925 217.04 155.322 216.645 154.906C216.251 154.48 215.712 154.266 215.029 154.266C214.347 154.266 213.803 154.48 213.397 154.906C213.003 155.322 212.805 155.925 212.805 156.714V161.642H210.981V152.826H212.805V153.834C213.104 153.472 213.483 153.189 213.941 152.986C214.411 152.784 214.907 152.682 215.429 152.682Z" fill="#28293E"/>
<path d="M40 189.142L40.6223 196.52L48 197.142L40.6223 197.765L40 205.142L39.3777 197.765L32 197.142L39.3777 196.52L40 189.142Z" fill="#28293E"/>
<path d="M59.008 191.522V198.61C59.008 199.453 59.2267 200.088 59.664 200.514C60.112 200.941 60.7307 201.154 61.52 201.154C62.32 201.154 62.9387 200.941 63.376 200.514C63.824 200.088 64.048 199.453 64.048 198.61V191.522H65.872V198.578C65.872 199.485 65.6747 200.253 65.28 200.882C64.8853 201.512 64.3573 201.981 63.696 202.29C63.0347 202.6 62.304 202.754 61.504 202.754C60.704 202.754 59.9733 202.6 59.312 202.29C58.6613 201.981 58.144 201.512 57.76 200.882C57.376 200.253 57.184 199.485 57.184 198.578V191.522H59.008ZM71.4469 202.786C70.7535 202.786 70.1295 202.664 69.5749 202.418C69.0309 202.162 68.5989 201.821 68.2789 201.394C67.9589 200.957 67.7882 200.472 67.7669 199.938H69.6549C69.6869 200.312 69.8629 200.626 70.1829 200.882C70.5135 201.128 70.9242 201.25 71.4149 201.25C71.9269 201.25 72.3215 201.154 72.5989 200.962C72.8869 200.76 73.0309 200.504 73.0309 200.194C73.0309 199.864 72.8709 199.618 72.5509 199.458C72.2415 199.298 71.7455 199.122 71.0629 198.93C70.4015 198.749 69.8629 198.573 69.4469 198.402C69.0309 198.232 68.6682 197.97 68.3589 197.618C68.0602 197.266 67.9109 196.802 67.9109 196.226C67.9109 195.757 68.0495 195.33 68.3269 194.946C68.6042 194.552 68.9989 194.242 69.5109 194.018C70.0335 193.794 70.6309 193.682 71.3029 193.682C72.3055 193.682 73.1109 193.938 73.7189 194.45C74.3375 194.952 74.6682 195.64 74.7109 196.514H72.8869C72.8549 196.12 72.6949 195.805 72.4069 195.57C72.1189 195.336 71.7295 195.218 71.2389 195.218C70.7589 195.218 70.3909 195.309 70.1349 195.49C69.8789 195.672 69.7509 195.912 69.7509 196.21C69.7509 196.445 69.8362 196.642 70.0069 196.802C70.1775 196.962 70.3855 197.09 70.6309 197.186C70.8762 197.272 71.2389 197.384 71.7189 197.522C72.3589 197.693 72.8815 197.869 73.2869 198.05C73.7029 198.221 74.0602 198.477 74.3589 198.818C74.6575 199.16 74.8122 199.613 74.8229 200.178C74.8229 200.68 74.6842 201.128 74.4069 201.522C74.1295 201.917 73.7349 202.226 73.2229 202.45C72.7215 202.674 72.1295 202.786 71.4469 202.786ZM84.8738 198.018C84.8738 198.349 84.8524 198.648 84.8098 198.914H78.0738C78.1271 199.618 78.3884 200.184 78.8578 200.61C79.3271 201.037 79.9031 201.25 80.5858 201.25C81.5671 201.25 82.2604 200.84 82.6658 200.018H84.6337C84.3671 200.829 83.8818 201.496 83.1778 202.018C82.4844 202.53 81.6204 202.786 80.5858 202.786C79.7431 202.786 78.9858 202.6 78.3138 202.226C77.6524 201.842 77.1298 201.309 76.7458 200.626C76.3724 199.933 76.1858 199.133 76.1858 198.226C76.1858 197.32 76.3671 196.525 76.7298 195.842C77.1031 195.149 77.6204 194.616 78.2818 194.242C78.9538 193.869 79.7218 193.682 80.5858 193.682C81.4178 193.682 82.1591 193.864 82.8098 194.226C83.4604 194.589 83.9671 195.101 84.3298 195.762C84.6924 196.413 84.8738 197.165 84.8738 198.018ZM82.9698 197.442C82.9591 196.77 82.7191 196.232 82.2498 195.826C81.7804 195.421 81.1991 195.218 80.5058 195.218C79.8764 195.218 79.3378 195.421 78.8898 195.826C78.4418 196.221 78.1751 196.76 78.0898 197.442H82.9698ZM88.4928 195.106C88.7594 194.658 89.1114 194.312 89.5488 194.066C89.9968 193.81 90.5248 193.682 91.1328 193.682V195.57H90.6688C89.9541 195.57 89.4101 195.752 89.0368 196.114C88.6741 196.477 88.4928 197.106 88.4928 198.002V202.642H86.6688V193.826H88.4928V195.106ZM99.0936 195.314V200.194C99.0936 200.525 99.1683 200.765 99.3176 200.914C99.4776 201.053 99.7443 201.122 100.118 201.122H101.238V202.642H99.7976C98.9763 202.642 98.347 202.45 97.9096 202.066C97.4723 201.682 97.2536 201.058 97.2536 200.194V195.314H96.2136V193.826H97.2536V191.634H99.0936V193.826H101.238V195.314H99.0936ZM110.999 198.018C110.999 198.349 110.977 198.648 110.935 198.914H104.199C104.252 199.618 104.513 200.184 104.983 200.61C105.452 201.037 106.028 201.25 106.711 201.25C107.692 201.25 108.385 200.84 108.791 200.018H110.759C110.492 200.829 110.007 201.496 109.303 202.018C108.609 202.53 107.745 202.786 106.711 202.786C105.868 202.786 105.111 202.6 104.439 202.226C103.777 201.842 103.255 201.309 102.871 200.626C102.497 199.933 102.311 199.133 102.311 198.226C102.311 197.32 102.492 196.525 102.855 195.842C103.228 195.149 103.745 194.616 104.407 194.242C105.079 193.869 105.847 193.682 106.711 193.682C107.543 193.682 108.284 193.864 108.935 194.226C109.585 194.589 110.092 195.101 110.455 195.762C110.817 196.413 110.999 197.165 110.999 198.018ZM109.095 197.442C109.084 196.77 108.844 196.232 108.375 195.826C107.905 195.421 107.324 195.218 106.631 195.218C106.001 195.218 105.463 195.421 105.015 195.826C104.567 196.221 104.3 196.76 104.215 197.442H109.095ZM115.994 202.786C115.3 202.786 114.676 202.664 114.122 202.418C113.578 202.162 113.146 201.821 112.826 201.394C112.506 200.957 112.335 200.472 112.314 199.938H114.202C114.234 200.312 114.41 200.626 114.73 200.882C115.06 201.128 115.471 201.25 115.962 201.25C116.474 201.25 116.868 201.154 117.146 200.962C117.434 200.76 117.578 200.504 117.578 200.194C117.578 199.864 117.418 199.618 117.098 199.458C116.788 199.298 116.292 199.122 115.61 198.93C114.948 198.749 114.41 198.573 113.994 198.402C113.578 198.232 113.215 197.97 112.906 197.618C112.607 197.266 112.458 196.802 112.458 196.226C112.458 195.757 112.596 195.33 112.874 194.946C113.151 194.552 113.546 194.242 114.058 194.018C114.58 193.794 115.178 193.682 115.85 193.682C116.852 193.682 117.658 193.938 118.266 194.45C118.884 194.952 119.215 195.64 119.258 196.514H117.434C117.402 196.12 117.242 195.805 116.954 195.57C116.666 195.336 116.276 195.218 115.786 195.218C115.306 195.218 114.938 195.309 114.682 195.49C114.426 195.672 114.298 195.912 114.298 196.21C114.298 196.445 114.383 196.642 114.554 196.802C114.724 196.962 114.932 197.09 115.178 197.186C115.423 197.272 115.786 197.384 116.266 197.522C116.906 197.693 117.428 197.869 117.834 198.05C118.25 198.221 118.607 198.477 118.906 198.818C119.204 199.16 119.359 199.613 119.37 200.178C119.37 200.68 119.231 201.128 118.954 201.522C118.676 201.917 118.282 202.226 117.77 202.45C117.268 202.674 116.676 202.786 115.994 202.786ZM123.469 195.314V200.194C123.469 200.525 123.543 200.765 123.693 200.914C123.853 201.053 124.119 201.122 124.493 201.122H125.613V202.642H124.173C123.351 202.642 122.722 202.45 122.285 202.066C121.847 201.682 121.629 201.058 121.629 200.194V195.314H120.589V193.826H121.629V191.634H123.469V193.826H125.613V195.314H123.469ZM128.222 192.658C127.891 192.658 127.614 192.546 127.39 192.322C127.166 192.098 127.054 191.821 127.054 191.49C127.054 191.16 127.166 190.882 127.39 190.658C127.614 190.434 127.891 190.322 128.222 190.322C128.542 190.322 128.814 190.434 129.038 190.658C129.262 190.882 129.374 191.16 129.374 191.49C129.374 191.821 129.262 192.098 129.038 192.322C128.814 192.546 128.542 192.658 128.222 192.658ZM129.118 193.826V202.642H127.294V193.826H129.118ZM135.961 193.682C136.654 193.682 137.273 193.826 137.817 194.114C138.371 194.402 138.803 194.829 139.113 195.394C139.422 195.96 139.577 196.642 139.577 197.442V202.642H137.769V197.714C137.769 196.925 137.571 196.322 137.177 195.906C136.782 195.48 136.243 195.266 135.561 195.266C134.878 195.266 134.334 195.48 133.929 195.906C133.534 196.322 133.337 196.925 133.337 197.714V202.642H131.513V193.826H133.337V194.834C133.635 194.472 134.014 194.189 134.473 193.986C134.942 193.784 135.438 193.682 135.961 193.682ZM145.455 193.682C146.138 193.682 146.74 193.821 147.263 194.098C147.796 194.365 148.212 194.701 148.511 195.106V193.826H150.351V202.786C150.351 203.597 150.18 204.317 149.839 204.946C149.498 205.586 149.002 206.088 148.351 206.45C147.711 206.813 146.943 206.994 146.047 206.994C144.852 206.994 143.86 206.712 143.071 206.146C142.282 205.592 141.834 204.834 141.727 203.874H143.535C143.674 204.333 143.967 204.701 144.415 204.978C144.874 205.266 145.418 205.41 146.047 205.41C146.783 205.41 147.375 205.186 147.823 204.738C148.282 204.29 148.511 203.64 148.511 202.786V201.314C148.202 201.73 147.78 202.082 147.247 202.37C146.724 202.648 146.127 202.786 145.455 202.786C144.687 202.786 143.983 202.594 143.343 202.21C142.714 201.816 142.212 201.272 141.839 200.578C141.476 199.874 141.295 199.08 141.295 198.194C141.295 197.309 141.476 196.525 141.839 195.842C142.212 195.16 142.714 194.632 143.343 194.258C143.983 193.874 144.687 193.682 145.455 193.682ZM148.511 198.226C148.511 197.618 148.383 197.09 148.127 196.642C147.882 196.194 147.556 195.853 147.151 195.618C146.746 195.384 146.308 195.266 145.839 195.266C145.37 195.266 144.932 195.384 144.527 195.618C144.122 195.842 143.791 196.178 143.535 196.626C143.29 197.064 143.167 197.586 143.167 198.194C143.167 198.802 143.29 199.336 143.535 199.794C143.791 200.253 144.122 200.605 144.527 200.85C144.943 201.085 145.38 201.202 145.839 201.202C146.308 201.202 146.746 201.085 147.151 200.85C147.556 200.616 147.882 200.274 148.127 199.826C148.383 199.368 148.511 198.834 148.511 198.226Z" fill="#28293E"/>
<path d="M180 189.142L180.622 196.52L188 197.142L180.622 197.765L180 205.142L179.378 197.765L172 197.142L179.378 196.52L180 189.142Z" fill="#28293E"/>
<path d="M203.152 196.93C203.749 197.037 204.256 197.352 204.672 197.874C205.088 198.397 205.296 198.989 205.296 199.65C205.296 200.216 205.147 200.728 204.848 201.186C204.56 201.634 204.139 201.992 203.584 202.258C203.029 202.514 202.384 202.642 201.648 202.642H197.2V191.522H201.44C202.197 191.522 202.848 191.65 203.392 191.906C203.936 192.162 204.347 192.509 204.624 192.946C204.901 193.373 205.04 193.853 205.04 194.386C205.04 195.026 204.869 195.56 204.528 195.986C204.187 196.413 203.728 196.728 203.152 196.93ZM199.024 196.194H201.28C201.877 196.194 202.341 196.061 202.672 195.794C203.013 195.517 203.184 195.122 203.184 194.61C203.184 194.109 203.013 193.72 202.672 193.442C202.341 193.154 201.877 193.01 201.28 193.01H199.024V196.194ZM201.488 201.154C202.107 201.154 202.592 201.005 202.944 200.706C203.296 200.408 203.472 199.992 203.472 199.458C203.472 198.914 203.285 198.482 202.912 198.162C202.539 197.842 202.043 197.682 201.424 197.682H199.024V201.154H201.488ZM209.102 195.106C209.369 194.658 209.721 194.312 210.158 194.066C210.606 193.81 211.134 193.682 211.742 193.682V195.57H211.278C210.563 195.57 210.019 195.752 209.646 196.114C209.283 196.477 209.102 197.106 209.102 198.002V202.642H207.278V193.826H209.102V195.106ZM212.811 198.194C212.811 197.309 212.992 196.525 213.355 195.842C213.728 195.16 214.229 194.632 214.859 194.258C215.499 193.874 216.203 193.682 216.971 193.682C217.664 193.682 218.267 193.821 218.779 194.098C219.301 194.365 219.717 194.701 220.027 195.106V193.826H221.867V202.642H220.027V201.33C219.717 201.746 219.296 202.093 218.763 202.37C218.229 202.648 217.621 202.786 216.939 202.786C216.181 202.786 215.488 202.594 214.859 202.21C214.229 201.816 213.728 201.272 213.355 200.578C212.992 199.874 212.811 199.08 212.811 198.194ZM220.027 198.226C220.027 197.618 219.899 197.09 219.643 196.642C219.397 196.194 219.072 195.853 218.667 195.618C218.261 195.384 217.824 195.266 217.355 195.266C216.885 195.266 216.448 195.384 216.043 195.618C215.637 195.842 215.307 196.178 215.051 196.626C214.805 197.064 214.683 197.586 214.683 198.194C214.683 198.802 214.805 199.336 215.051 199.794C215.307 200.253 215.637 200.605 216.043 200.85C216.459 201.085 216.896 201.202 217.355 201.202C217.824 201.202 218.261 201.085 218.667 200.85C219.072 200.616 219.397 200.274 219.643 199.826C219.899 199.368 220.027 198.834 220.027 198.226ZM228.711 193.682C229.404 193.682 230.023 193.826 230.567 194.114C231.121 194.402 231.553 194.829 231.863 195.394C232.172 195.96 232.327 196.642 232.327 197.442V202.642H230.519V197.714C230.519 196.925 230.321 196.322 229.927 195.906C229.532 195.48 228.993 195.266 228.311 195.266C227.628 195.266 227.084 195.48 226.679 195.906C226.284 196.322 226.087 196.925 226.087 197.714V202.642H224.263V193.826H226.087V194.834C226.385 194.472 226.764 194.189 227.223 193.986C227.692 193.784 228.188 193.682 228.711 193.682ZM234.045 198.194C234.045 197.309 234.226 196.525 234.589 195.842C234.962 195.16 235.464 194.632 236.093 194.258C236.733 193.874 237.442 193.682 238.221 193.682C238.797 193.682 239.362 193.81 239.917 194.066C240.482 194.312 240.93 194.642 241.261 195.058V190.802H243.101V202.642H241.261V201.314C240.962 201.741 240.546 202.093 240.013 202.37C239.49 202.648 238.888 202.786 238.205 202.786C237.437 202.786 236.733 202.594 236.093 202.21C235.464 201.816 234.962 201.272 234.589 200.578C234.226 199.874 234.045 199.08 234.045 198.194ZM241.261 198.226C241.261 197.618 241.133 197.09 240.877 196.642C240.632 196.194 240.306 195.853 239.901 195.618C239.496 195.384 239.058 195.266 238.589 195.266C238.12 195.266 237.682 195.384 237.277 195.618C236.872 195.842 236.541 196.178 236.285 196.626C236.04 197.064 235.917 197.586 235.917 198.194C235.917 198.802 236.04 199.336 236.285 199.794C236.541 200.253 236.872 200.605 237.277 200.85C237.693 201.085 238.13 201.202 238.589 201.202C239.058 201.202 239.496 201.085 239.901 200.85C240.306 200.616 240.632 200.274 240.877 199.826C241.133 199.368 241.261 198.834 241.261 198.226ZM250.581 192.658C250.25 192.658 249.973 192.546 249.749 192.322C249.525 192.098 249.413 191.821 249.413 191.49C249.413 191.16 249.525 190.882 249.749 190.658C249.973 190.434 250.25 190.322 250.581 190.322C250.901 190.322 251.173 190.434 251.397 190.658C251.621 190.882 251.733 191.16 251.733 191.49C251.733 191.821 251.621 192.098 251.397 192.322C251.173 192.546 250.901 192.658 250.581 192.658ZM251.477 193.826V202.642H249.653V193.826H251.477ZM253.264 198.194C253.264 197.309 253.445 196.525 253.808 195.842C254.181 195.16 254.683 194.632 255.312 194.258C255.952 193.874 256.661 193.682 257.44 193.682C258.016 193.682 258.581 193.81 259.136 194.066C259.701 194.312 260.149 194.642 260.48 195.058V190.802H262.32V202.642H260.48V201.314C260.181 201.741 259.765 202.093 259.232 202.37C258.709 202.648 258.107 202.786 257.424 202.786C256.656 202.786 255.952 202.594 255.312 202.21C254.683 201.816 254.181 201.272 253.808 200.578C253.445 199.874 253.264 199.08 253.264 198.194ZM260.48 198.226C260.48 197.618 260.352 197.09 260.096 196.642C259.851 196.194 259.525 195.853 259.12 195.618C258.715 195.384 258.277 195.266 257.808 195.266C257.339 195.266 256.901 195.384 256.496 195.618C256.091 195.842 255.76 196.178 255.504 196.626C255.259 197.064 255.136 197.586 255.136 198.194C255.136 198.802 255.259 199.336 255.504 199.794C255.76 200.253 256.091 200.605 256.496 200.85C256.912 201.085 257.349 201.202 257.808 201.202C258.277 201.202 258.715 201.085 259.12 200.85C259.525 200.616 259.851 200.274 260.096 199.826C260.352 199.368 260.48 198.834 260.48 198.226ZM272.796 198.018C272.796 198.349 272.774 198.648 272.732 198.914H265.996C266.049 199.618 266.31 200.184 266.78 200.61C267.249 201.037 267.825 201.25 268.508 201.25C269.489 201.25 270.182 200.84 270.588 200.018H272.556C272.289 200.829 271.804 201.496 271.1 202.018C270.406 202.53 269.542 202.786 268.508 202.786C267.665 202.786 266.908 202.6 266.236 202.226C265.574 201.842 265.052 201.309 264.668 200.626C264.294 199.933 264.108 199.133 264.108 198.226C264.108 197.32 264.289 196.525 264.652 195.842C265.025 195.149 265.542 194.616 266.204 194.242C266.876 193.869 267.644 193.682 268.508 193.682C269.34 193.682 270.081 193.864 270.732 194.226C271.382 194.589 271.889 195.101 272.252 195.762C272.614 196.413 272.796 197.165 272.796 198.018ZM270.892 197.442C270.881 196.77 270.641 196.232 270.172 195.826C269.702 195.421 269.121 195.218 268.428 195.218C267.798 195.218 267.26 195.421 266.812 195.826C266.364 196.221 266.097 196.76 266.012 197.442H270.892ZM279.039 193.682C279.732 193.682 280.351 193.826 280.895 194.114C281.449 194.402 281.881 194.829 282.191 195.394C282.5 195.96 282.655 196.642 282.655 197.442V202.642H280.847V197.714C280.847 196.925 280.649 196.322 280.255 195.906C279.86 195.48 279.321 195.266 278.639 195.266C277.956 195.266 277.412 195.48 277.007 195.906C276.612 196.322 276.415 196.925 276.415 197.714V202.642H274.591V193.826H276.415V194.834C276.713 194.472 277.092 194.189 277.551 193.986C278.02 193.784 278.516 193.682 279.039 193.682ZM287.109 195.314V200.194C287.109 200.525 287.184 200.765 287.333 200.914C287.493 201.053 287.76 201.122 288.133 201.122H289.253V202.642H287.813C286.992 202.642 286.363 202.45 285.925 202.066C285.488 201.682 285.269 201.058 285.269 200.194V195.314H284.229V193.826H285.269V191.634H287.109V193.826H289.253V195.314H287.109ZM291.862 192.658C291.532 192.658 291.254 192.546 291.03 192.322C290.806 192.098 290.694 191.821 290.694 191.49C290.694 191.16 290.806 190.882 291.03 190.658C291.254 190.434 291.532 190.322 291.862 190.322C292.182 190.322 292.454 190.434 292.678 190.658C292.902 190.882 293.014 191.16 293.014 191.49C293.014 191.821 292.902 192.098 292.678 192.322C292.454 192.546 292.182 192.658 291.862 192.658ZM292.758 193.826V202.642H290.934V193.826H292.758ZM297.281 195.314V200.194C297.281 200.525 297.356 200.765 297.505 200.914C297.665 201.053 297.932 201.122 298.305 201.122H299.425V202.642H297.985C297.164 202.642 296.534 202.45 296.097 202.066C295.66 201.682 295.441 201.058 295.441 200.194V195.314H294.401V193.826H295.441V191.634H297.281V193.826H299.425V195.314H297.281ZM309.042 193.826L303.634 206.786H301.746L303.538 202.498L300.066 193.826H302.098L304.578 200.546L307.154 193.826H309.042Z" fill="#28293E"/>
<rect x="31.6953" y="10.3937" width="149" height="36" rx="5" transform="rotate(-4 31.6953 10.3937)" fill="#EF6D58"/>
<path d="M48.4986 27.1784C48.4227 26.0931 48.6047 25.1019 49.0446 24.2051C49.495 23.3075 50.1345 22.5891 50.9629 22.05C51.8012 21.4995 52.7364 21.1882 53.7686 21.116C54.9497 21.0334 56.0183 21.2528 56.9743 21.774C57.9402 22.2839 58.6679 23.0563 59.1573 24.0914L56.9706 24.2443C56.6424 23.6791 56.2128 23.2708 55.682 23.0192C55.1512 22.7676 54.5506 22.6653 53.8802 22.7121C53.146 22.7635 52.5031 22.9742 51.9516 23.3442C51.4001 23.7142 50.9809 24.2194 50.6942 24.8596C50.4182 25.4991 50.3088 26.2285 50.3661 27.0478C50.4234 27.8672 50.6332 28.5742 50.9956 29.1691C51.3686 29.7632 51.8543 30.2104 52.4527 30.5107C53.0504 30.8004 53.7163 30.9196 54.4505 30.8682C55.1209 30.8213 55.7014 30.6364 56.1921 30.3134C56.6827 29.9904 57.0512 29.5262 57.2976 28.9209L59.4843 28.768C59.1437 29.861 58.5306 30.7273 57.6451 31.3666C56.7701 32.0052 55.7421 32.3658 54.561 32.4484C53.5182 32.5213 52.5491 32.3485 51.6538 31.9299C50.7576 31.5007 50.0241 30.873 49.453 30.0468C48.8927 29.2199 48.5745 28.2638 48.4986 27.1784ZM65.6643 31.7201C64.8343 31.7781 64.0711 31.6443 63.3747 31.3188C62.6775 30.9826 62.1136 30.4874 61.6829 29.8332C61.2515 29.1683 61.0042 28.3837 60.9409 27.4792C60.8784 26.5854 61.0198 25.7789 61.3652 25.0597C61.7105 24.3405 62.2107 23.7709 62.8656 23.3509C63.5206 22.9308 64.2684 22.6914 65.109 22.6327C65.9496 22.5739 66.7234 22.7069 67.4305 23.0317C68.1375 23.3565 68.7121 23.8509 69.1542 24.5151C69.5962 25.1792 69.8485 25.9581 69.911 26.852C69.9735 27.7458 69.8268 28.5526 69.4708 29.2726C69.1148 29.9925 68.5991 30.5685 67.9236 31.0007C67.258 31.4215 66.5049 31.6613 65.6643 31.7201ZM65.5538 30.1399C66.022 30.1072 66.4504 29.9649 66.8391 29.7132C67.2385 29.4607 67.5502 29.1021 67.7744 28.6374C67.9985 28.1726 68.0882 27.621 68.0436 26.9825C67.9989 26.3441 67.839 25.8153 67.5638 25.3961C67.2878 24.9664 66.9398 24.6539 66.5198 24.4587C66.0998 24.2635 65.6558 24.1823 65.1876 24.215C64.7194 24.2478 64.2909 24.39 63.9022 24.6417C63.5241 24.8927 63.2337 25.2498 63.0308 25.7131C62.8272 26.1658 62.7478 26.7113 62.7924 27.3497C62.8586 28.2968 63.1494 29.0142 63.6647 29.5021C64.1899 29.9787 64.8196 30.1913 65.5538 30.1399ZM82.0388 21.4488C82.7304 21.4004 83.3576 21.5009 83.9204 21.7503C84.4938 21.9989 84.9545 22.3944 85.3025 22.9368C85.6612 23.4784 85.8684 24.1482 85.9242 24.9463L86.287 30.1336L84.4834 30.2597L84.1396 25.3437C84.0845 24.5563 83.8456 23.9689 83.4229 23.5814C82.9995 23.1834 82.4472 23.0081 81.7662 23.0557C81.0852 23.1034 80.5574 23.3541 80.1828 23.808C79.8181 24.2505 79.6633 24.8655 79.7184 25.6529L80.0622 30.5689L78.2586 30.695L77.9148 25.779C77.8597 24.9916 77.6208 24.4042 77.1981 24.0167C76.7747 23.6186 76.2224 23.4434 75.5414 23.491C74.8604 23.5386 74.3326 23.7894 73.958 24.2433C73.5933 24.6858 73.4385 25.3008 73.4936 26.0882L73.8374 31.0042L72.0178 31.1314L71.4028 22.3369L73.2224 22.2097L73.2927 23.2152C73.5653 22.8326 73.9234 22.5242 74.3668 22.29C74.8102 22.0559 75.2926 21.9205 75.814 21.8841C76.5163 21.835 77.1545 21.94 77.7286 22.1993C78.3028 22.4585 78.7585 22.8597 79.0959 23.4028C79.3247 22.8522 79.7103 22.4029 80.2527 22.0549C80.7943 21.6962 81.3897 21.4942 82.0388 21.4488ZM89.8973 22.3428C90.1776 21.9169 90.5741 21.547 91.0868 21.2331C91.5995 20.9193 92.191 20.7389 92.8614 20.692C93.6275 20.6384 94.3378 20.7812 94.9924 21.1204C95.6569 21.4482 96.1939 21.9399 96.6033 22.5956C97.0127 23.2513 97.2482 24.0208 97.31 24.904C97.3718 25.7871 97.2463 26.5925 96.9336 27.3201C96.6202 28.037 96.158 28.6147 95.5471 29.053C94.9461 29.48 94.2625 29.7203 93.4964 29.7738C92.8261 29.8207 92.2209 29.7294 91.6809 29.4998C91.1401 29.2596 90.6907 28.9489 90.3326 28.5676L90.7143 34.0263L88.8947 34.1535L87.9873 21.1772L89.8069 21.05L89.8973 22.3428ZM95.4585 25.0334C95.4161 24.4269 95.252 23.9144 94.9661 23.496C94.6901 23.0662 94.3368 22.7541 93.9062 22.5597C93.4855 22.3539 93.041 22.2673 92.5728 22.3001C92.1153 22.3321 91.6872 22.4796 91.2886 22.7427C90.9006 23.0051 90.5945 23.3687 90.3704 23.8334C90.1569 24.2975 90.0714 24.8327 90.1138 25.4392C90.1562 26.0458 90.3158 26.5692 90.5925 27.0097C90.8792 27.4387 91.2328 27.7562 91.6535 27.962C92.0849 28.1671 92.5294 28.2536 92.9869 28.2216C93.4551 28.1889 93.8832 28.0413 94.2711 27.7789C94.669 27.5052 94.9743 27.131 95.1871 26.6563C95.4105 26.1809 95.5009 25.6399 95.4585 25.0334ZM107.157 24.0389C107.18 24.3688 107.18 24.6682 107.156 24.9372L100.436 25.4071C100.539 26.1057 100.839 26.6514 101.337 27.0443C101.835 27.4372 102.424 27.6098 103.105 27.5622C104.084 27.4937 104.747 27.0357 105.094 26.1881L107.057 26.0508C106.848 26.8781 106.41 27.577 105.745 28.1475C105.089 28.7066 104.245 29.0223 103.212 29.0944C102.372 29.1532 101.603 29.0198 100.907 28.6943C100.22 28.3573 99.6618 27.8618 99.2311 27.2076C98.8103 26.542 98.5683 25.7569 98.5051 24.8525C98.4418 23.948 98.5673 23.1426 98.8814 22.4363C99.2055 21.7186 99.6844 21.1505 100.318 20.732C100.962 20.3127 101.715 20.0729 102.577 20.0126C103.407 19.9546 104.16 20.0837 104.834 20.4001C105.508 20.7165 106.049 21.1919 106.457 21.8264C106.865 22.4502 107.098 23.1877 107.157 24.0389ZM105.218 23.5971C105.16 22.9275 104.883 22.4069 104.387 22.0353C103.89 21.6637 103.296 21.5021 102.605 21.5504C101.977 21.5943 101.454 21.8341 101.035 22.2697C100.616 22.6946 100.387 23.2506 100.35 23.9376L105.218 23.5971ZM110.882 21.0679L111.223 25.936C111.246 26.2658 111.337 26.5 111.496 26.6386C111.666 26.7658 111.936 26.8163 112.309 26.7903L113.426 26.7122L113.532 28.2285L112.096 28.3289C111.276 28.3862 110.635 28.2386 110.172 27.886C109.709 27.5334 109.447 26.9262 109.387 26.0643L109.047 21.1962L108.009 21.2688L107.905 19.7844L108.943 19.7118L108.79 17.5252L110.626 17.3968L110.778 19.5835L112.917 19.4339L113.021 20.9183L110.882 21.0679ZM122.947 22.9348C122.97 23.2647 122.97 23.5641 122.946 23.8331L116.226 24.303C116.328 25.0015 116.628 25.5473 117.126 25.9402C117.624 26.333 118.214 26.5057 118.895 26.4581C119.874 26.3896 120.537 25.9316 120.884 25.084L122.847 24.9467C122.638 25.774 122.2 26.4729 121.534 27.0434C120.878 27.6025 120.034 27.9181 119.002 27.9903C118.161 28.0491 117.393 27.9157 116.696 27.5902C116.01 27.2532 115.451 26.7577 115.021 26.1034C114.6 25.4378 114.358 24.6528 114.295 23.7484C114.231 22.8439 114.357 22.0385 114.671 21.3322C114.995 20.6145 115.474 20.0464 116.108 19.6278C116.752 19.2085 117.505 18.9688 118.367 18.9085C119.197 18.8505 119.949 18.9796 120.623 19.296C121.298 19.6124 121.839 20.0878 122.247 20.7223C122.654 21.346 122.887 22.0836 122.947 22.9348ZM121.007 22.493C120.95 21.8234 120.673 21.3028 120.176 20.9312C119.68 20.5596 119.086 20.398 118.394 20.4463C117.766 20.4902 117.243 20.73 116.825 21.1656C116.405 21.5905 116.177 22.1465 116.139 22.8334L121.007 22.493ZM128.872 18.1739C129.564 18.1255 130.191 18.226 130.754 18.4754C131.327 18.724 131.788 19.1195 132.136 19.6618C132.484 20.2042 132.686 20.8744 132.742 21.6725L133.105 26.8598L131.301 26.9859L130.957 22.0699C130.902 21.2825 130.663 20.6951 130.24 20.3076C129.817 19.9095 129.265 19.7343 128.584 19.7819C127.903 19.8296 127.375 20.0803 127 20.5342C126.636 20.9767 126.481 21.5917 126.536 22.3791L126.88 27.2951L125.06 27.4223L124.445 18.6278L126.265 18.5006L126.335 19.5061C126.608 19.1235 126.966 18.8151 127.409 18.5809C127.863 18.346 128.351 18.2103 128.872 18.1739ZM134.511 22.3347C134.448 21.4302 134.573 20.6249 134.887 19.9186C135.211 19.2009 135.685 18.6331 136.308 18.2153C136.931 17.7975 137.663 17.5592 138.503 17.5004C139.567 17.426 140.463 17.62 141.191 18.0824C141.928 18.5334 142.452 19.2185 142.762 20.1378L140.799 20.2751C140.608 19.85 140.329 19.5273 139.961 19.3071C139.593 19.087 139.143 18.9955 138.611 19.0327C137.866 19.0848 137.288 19.3924 136.879 19.9557C136.479 20.5076 136.312 21.2571 136.378 22.2041C136.445 23.1511 136.714 23.8754 137.188 24.3769C137.672 24.8777 138.286 25.1021 139.031 25.05C140.085 24.9763 140.749 24.4647 141.025 23.5152L142.988 23.3779C142.795 24.2896 142.366 25.036 141.701 25.6171C141.036 26.1876 140.181 26.5093 139.138 26.5822C138.298 26.641 137.54 26.5069 136.865 26.1799C136.189 25.8422 135.641 25.3459 135.221 24.6909C134.811 24.0246 134.574 23.2392 134.511 22.3347ZM145.225 16.0039C144.895 16.027 144.611 15.9346 144.372 15.7267C144.133 15.5189 144.002 15.2501 143.979 14.9202C143.955 14.5903 144.048 14.3059 144.256 14.0668C144.463 13.8277 144.732 13.6966 145.062 13.6736C145.381 13.6513 145.661 13.744 145.9 13.9518C146.139 14.1597 146.27 14.4285 146.293 14.7584C146.316 15.0882 146.224 15.3727 146.016 15.6118C145.808 15.8509 145.544 15.9816 145.225 16.0039ZM146.2 17.1065L146.815 25.9011L144.996 26.0283L144.381 17.2338L146.2 17.1065ZM156.942 20.5576C156.965 20.8875 156.965 21.1869 156.941 21.4559L150.221 21.9258C150.323 22.6244 150.624 23.1701 151.122 23.563C151.619 23.9559 152.209 24.1285 152.89 24.0809C153.869 24.0124 154.532 23.5544 154.879 22.7068L156.842 22.5695C156.633 23.3968 156.195 24.0957 155.529 24.6662C154.873 25.2253 154.029 25.541 152.997 25.6131C152.157 25.6719 151.388 25.5385 150.692 25.213C150.005 24.8761 149.446 24.3805 149.016 23.7263C148.595 23.0607 148.353 22.2756 148.29 21.3712C148.227 20.4667 148.352 19.6613 148.666 18.955C148.99 18.2374 149.469 17.6692 150.103 17.2507C150.747 16.8314 151.5 16.5916 152.362 16.5313C153.192 16.4733 153.944 16.6025 154.619 16.9189C155.293 17.2353 155.834 17.7107 156.242 18.3451C156.649 18.9689 156.883 19.7064 156.942 20.5576ZM155.003 20.1159C154.945 19.4462 154.668 18.9256 154.172 18.554C153.675 18.1824 153.081 18.0208 152.389 18.0692C151.762 18.1131 151.238 18.3528 150.82 18.7884C150.4 19.2134 150.172 19.7693 150.134 20.4563L155.003 20.1159ZM162.258 24.9656C161.566 25.014 160.935 24.9351 160.364 24.7291C159.804 24.5116 159.349 24.2013 159 23.798C158.65 23.384 158.446 22.9118 158.388 22.3812L160.271 22.2495C160.329 22.6197 160.527 22.9214 160.864 23.1544C161.211 23.3761 161.629 23.4698 162.118 23.4356C162.629 23.3999 163.016 23.2766 163.279 23.0657C163.553 22.8434 163.678 22.578 163.657 22.2694C163.634 21.9396 163.457 21.706 163.127 21.5687C162.807 21.4307 162.3 21.2897 161.605 21.1458C160.933 21.011 160.383 20.873 159.957 20.7318C159.53 20.5906 159.15 20.3552 158.817 20.0256C158.494 19.6953 158.313 19.2428 158.273 18.6682C158.24 18.2 158.348 17.7647 158.598 17.3623C158.847 16.9493 159.219 16.6132 159.715 16.354C160.22 16.0941 160.808 15.9407 161.479 15.8938C162.479 15.8239 163.3 16.0231 163.942 16.4914C164.595 16.9484 164.972 17.6116 165.076 18.4812L163.256 18.6084C163.197 18.217 163.015 17.9142 162.712 17.7002C162.408 17.4862 162.012 17.3963 161.522 17.4305C161.043 17.464 160.682 17.5801 160.44 17.7789C160.197 17.9776 160.086 18.226 160.107 18.5239C160.123 18.758 160.222 18.9489 160.404 19.0966C160.585 19.2443 160.801 19.3575 161.053 19.4362C161.304 19.5042 161.673 19.5906 162.162 19.6954C162.812 19.8211 163.346 19.9602 163.763 20.1128C164.19 20.254 164.564 20.4845 164.886 20.8041C165.207 21.1238 165.393 21.5652 165.443 22.1285C165.478 22.6286 165.371 23.0851 165.122 23.4982C164.873 23.9112 164.501 24.2474 164.006 24.5065C163.521 24.765 162.939 24.918 162.258 24.9656Z" fill="white"/>
</svg>
