<svg width="345" height="98" viewBox="0 0 345 98" fill="none" xmlns="http://www.w3.org/2000/svg">
<rect x="0.0498047" width="344" height="89" rx="12" fill="#28293E"/>
<g filter="url(#filter0_n_2009_3808)">
<path fill-rule="evenodd" clip-rule="evenodd" d="M332.05 0C338.677 3.09244e-06 344.05 5.37259 344.05 12V88.9092H343.99C343.794 93.8574 340.213 97.8007 335.823 97.8008C331.434 97.8008 327.853 93.8574 327.656 88.9092H327.638C327.441 93.8574 323.86 97.8007 319.471 97.8008C315.081 97.8008 311.5 93.8574 311.304 88.9092H311.285C311.089 93.8574 307.508 97.8007 303.118 97.8008C298.728 97.8008 295.148 93.8574 294.951 88.9092H294.932C294.735 93.8574 291.154 97.8007 286.765 97.8008C282.375 97.8008 278.794 93.8574 278.598 88.9092H278.578C278.381 93.8574 274.801 97.8007 270.411 97.8008C266.021 97.8008 262.441 93.8574 262.244 88.9092H262.225C262.028 93.8574 258.447 97.8007 254.058 97.8008C249.668 97.8008 246.087 93.8574 245.891 88.9092H245.677C245.48 93.8574 241.899 97.8007 237.51 97.8008C233.12 97.8008 229.539 93.8574 229.343 88.9092H229.323C229.127 93.8574 225.546 97.8007 221.156 97.8008C216.767 97.8008 213.186 93.8574 212.989 88.9092H212.971C212.774 93.8574 209.193 97.8007 204.804 97.8008C200.414 97.8008 196.833 93.8574 196.637 88.9092H196.618C196.421 93.8574 192.841 97.8007 188.451 97.8008C184.062 97.8008 180.481 93.8574 180.284 88.9092H180.265C180.068 93.8574 176.487 97.8007 172.098 97.8008C167.708 97.8008 164.127 93.8574 163.931 88.9092H163.911C163.714 93.8574 160.134 97.8007 155.744 97.8008C151.354 97.8008 147.774 93.8574 147.577 88.9092H147.363C147.167 93.8574 143.586 97.8007 139.196 97.8008C134.807 97.8008 131.226 93.8574 131.029 88.9092H131.01C130.813 93.8574 127.232 97.8007 122.843 97.8008C118.453 97.8008 114.872 93.8574 114.676 88.9092H114.657C114.461 93.8574 110.88 97.8007 106.49 97.8008C102.101 97.8008 98.5199 93.8574 98.3232 88.9092H98.3037C98.107 93.8574 94.5263 97.8007 90.1367 97.8008C85.7471 97.8008 82.1664 93.8574 81.9697 88.9092H81.9512C81.7545 93.8574 78.1738 97.8007 73.7842 97.8008C69.3945 97.8008 65.8139 93.8574 65.6172 88.9092H65.5977C65.401 93.8574 61.8203 97.8007 57.4307 97.8008C53.041 97.8008 49.4603 93.8574 49.2637 88.9092H49.0498C48.8531 93.8574 45.2724 97.8007 40.8828 97.8008C36.4931 97.8008 32.9125 93.8574 32.7158 88.9092H32.6963C32.4996 93.8574 28.9189 97.8007 24.5293 97.8008C20.1396 97.8008 16.559 93.8574 16.3623 88.9092H16.3438C16.1471 93.8574 12.5663 97.8007 8.17676 97.8008C3.66102 97.8008 0.000110783 93.6277 0 88.4805C0 88.1343 0.0175466 87.7924 0.0498047 87.4561V12C0.0498072 5.37259 5.42239 3.22128e-07 12.0498 0H332.05Z" fill="#28293E"/>
</g>
<path d="M31.8798 51.05C31.7998 49.87 31.7098 48.64 31.6098 47.36C31.5098 46.06 31.4098 44.82 31.3098 43.64C31.2298 42.46 31.1598 41.46 31.0998 40.64C31.0398 39.8 30.9898 39.26 30.9498 39.02C30.8898 38.56 30.9098 38.25 31.0098 38.09C31.1298 37.91 31.1898 37.82 31.1898 37.82C31.1898 37.82 31.1198 37.75 30.9798 37.61C30.8398 37.45 30.7698 37.28 30.7698 37.1C30.7698 36.78 30.9598 36.52 31.3398 36.32C31.7398 36.12 32.1898 35.97 32.6898 35.87C33.1898 35.77 33.6298 35.7 34.0098 35.66C34.4098 35.62 34.6098 35.6 34.6098 35.6C34.6098 35.6 34.8098 35.59 35.2098 35.57C35.6098 35.55 36.1198 35.57 36.7398 35.63C37.3798 35.69 38.0598 35.85 38.7798 36.11C39.5198 36.35 40.2198 36.74 40.8798 37.28C41.5598 37.82 42.1298 38.56 42.5898 39.5C43.0498 40.42 43.3298 41.6 43.4298 43.04C43.5498 44.74 43.4698 46.17 43.1898 47.33C42.9298 48.49 42.5298 49.44 41.9898 50.18C41.4698 50.9 40.8698 51.46 40.1898 51.86C39.5098 52.26 38.7998 52.54 38.0598 52.7C37.3398 52.84 36.6498 52.93 35.9898 52.97C35.3498 52.99 34.7898 53 34.3098 53C33.6098 53 33.0798 52.9 32.7198 52.7C32.3798 52.5 32.1498 52.28 32.0298 52.04C31.9298 51.78 31.8798 51.55 31.8798 51.35C31.8798 51.15 31.8798 51.05 31.8798 51.05ZM35.0898 38.3L36.4098 50.45C36.4098 50.45 36.4998 50.44 36.6798 50.42C36.8598 50.4 37.0798 50.31 37.3398 50.15C37.6198 49.99 37.8798 49.7 38.1198 49.28C38.3798 48.86 38.5798 48.27 38.7198 47.51C38.8598 46.73 38.8898 45.72 38.8098 44.48C38.7298 42.92 38.5598 41.71 38.2998 40.85C38.0598 39.97 37.7598 39.34 37.3998 38.96C37.0598 38.58 36.6898 38.36 36.2898 38.3C35.8898 38.24 35.4898 38.24 35.0898 38.3ZM56.9209 43.94C56.8609 44.94 56.5809 45.75 56.0809 46.37C55.5809 46.97 54.9709 47.43 54.2509 47.75C53.5509 48.05 52.8509 48.26 52.1509 48.38C51.4509 48.48 50.8609 48.53 50.3809 48.53C49.9209 48.53 49.6909 48.53 49.6909 48.53C49.8109 49.23 49.9809 49.73 50.2009 50.03C50.4209 50.33 50.6609 50.5 50.9209 50.54C51.2009 50.58 51.4609 50.56 51.7009 50.48C51.9409 50.38 52.1309 50.27 52.2709 50.15C52.4309 50.03 52.5109 49.97 52.5109 49.97C52.5109 49.97 52.6209 49.88 52.8409 49.7C53.0609 49.52 53.4009 49.35 53.8609 49.19C54.3409 49.01 54.9409 48.92 55.6609 48.92C56.4809 48.92 57.0309 49.03 57.3109 49.25C57.6109 49.45 57.7509 49.69 57.7309 49.97C57.7309 50.23 57.6709 50.47 57.5509 50.69C57.4509 50.89 57.4009 50.99 57.4009 50.99C57.4009 50.99 57.3109 51.09 57.1309 51.29C56.9709 51.47 56.6709 51.69 56.2309 51.95C55.7909 52.21 55.1809 52.45 54.4009 52.67C53.6209 52.87 52.6209 52.98 51.4009 53C50.2209 53.02 49.2309 52.86 48.4309 52.52C47.6309 52.18 46.9709 51.74 46.4509 51.2C45.9309 50.64 45.5309 50.06 45.2509 49.46C44.9909 48.84 44.8009 48.27 44.6809 47.75C44.5809 47.21 44.5309 46.79 44.5309 46.49C44.5309 46.19 44.5509 45.8 44.5909 45.32C44.6509 44.84 44.7809 44.34 44.9809 43.82C45.2009 43.28 45.5309 42.77 45.9709 42.29C46.4109 41.81 47.0109 41.42 47.7709 41.12C48.5509 40.82 49.5409 40.66 50.7409 40.64C52.2409 40.62 53.4109 40.75 54.2509 41.03C55.0909 41.31 55.7009 41.65 56.0809 42.05C56.4609 42.45 56.6909 42.83 56.7709 43.19C56.8709 43.55 56.9209 43.8 56.9209 43.94ZM49.2709 46.46C50.4909 46.36 51.4009 46.1 52.0009 45.68C52.6009 45.26 52.9509 44.79 53.0509 44.27C53.1509 43.75 53.0509 43.31 52.7509 42.95C52.4709 42.57 52.0409 42.4 51.4609 42.44C50.8809 42.46 50.4409 42.68 50.1409 43.1C49.8409 43.5 49.6309 43.97 49.5109 44.51C49.3909 45.03 49.3209 45.49 49.3009 45.89C49.2809 46.27 49.2709 46.46 49.2709 46.46ZM61.0443 50.99C61.0443 50.97 60.9643 50.85 60.8043 50.63C60.6643 50.39 60.4943 50 60.2943 49.46C60.0943 48.9 59.9043 48.13 59.7243 47.15C59.5443 46.15 59.4043 44.89 59.3043 43.37C59.2643 42.57 59.3743 42 59.6343 41.66C59.9143 41.32 60.2643 41.11 60.6843 41.03C61.1043 40.93 61.5043 40.88 61.8843 40.88C61.8843 40.88 61.9943 40.88 62.2143 40.88C62.4543 40.86 62.7243 40.88 63.0243 40.94C63.3243 40.98 63.5843 41.11 63.8043 41.33C64.0443 41.53 64.1743 41.85 64.1943 42.29C64.2143 42.65 64.2343 43.14 64.2543 43.76C64.2743 44.38 64.3043 45.05 64.3443 45.77C64.4043 46.47 64.4943 47.15 64.6143 47.81C64.7343 48.47 64.8843 49.02 65.0643 49.46C65.2643 49.88 65.5143 50.11 65.8143 50.15C66.1143 50.19 66.3143 50.02 66.4143 49.64C66.5143 49.24 66.5443 48.74 66.5043 48.14C66.4843 47.54 66.4243 46.94 66.3243 46.34C66.2443 45.72 66.1643 45.2 66.0843 44.78C66.0043 44.36 65.9643 44.15 65.9643 44.15C65.9643 44.15 65.9243 44.03 65.8443 43.79C65.7643 43.53 65.7343 43.24 65.7543 42.92C65.7743 42.6 65.9143 42.31 66.1743 42.05C66.4343 41.79 66.8943 41.65 67.5543 41.63C68.4543 41.59 69.1243 41.68 69.5643 41.9C70.0243 42.12 70.3343 42.4 70.4943 42.74C70.6743 43.08 70.7843 43.43 70.8243 43.79C70.8643 43.99 70.9343 44.47 71.0343 45.23C71.1543 45.97 71.2843 46.85 71.4243 47.87C71.5643 48.87 71.6743 49.91 71.7543 50.99C71.8343 52.05 71.8643 53.02 71.8443 53.9C71.8243 54.78 71.7043 55.45 71.4843 55.91C71.1443 56.65 70.6743 57.33 70.0743 57.95C69.4943 58.59 68.7143 59.08 67.7343 59.42C66.7743 59.78 65.5443 59.92 64.0443 59.84C62.9243 59.78 62.0243 59.6 61.3443 59.3C60.6643 59.02 60.1543 58.71 59.8143 58.37C59.4743 58.05 59.2443 57.76 59.1243 57.5C59.0243 57.26 58.9743 57.14 58.9743 57.14C58.9743 57.14 58.9343 57.03 58.8543 56.81C58.7943 56.59 58.7843 56.33 58.8243 56.03C58.8843 55.75 59.0743 55.5 59.3943 55.28C59.7143 55.08 60.2743 54.99 61.0743 55.01C61.8743 55.03 62.4543 55.1 62.8143 55.22C63.1743 55.36 63.4043 55.51 63.5043 55.67C63.6043 55.83 63.6343 55.97 63.5943 56.09C63.5743 56.21 63.5643 56.27 63.5643 56.27C63.5643 56.27 63.5643 56.38 63.5643 56.6C63.5643 56.82 63.6343 57.03 63.7743 57.23C63.9343 57.43 64.2143 57.52 64.6143 57.5C65.0343 57.46 65.4843 57.27 65.9643 56.93C66.4443 56.61 66.8043 56.12 67.0443 55.46C67.3043 54.8 67.2843 53.98 66.9843 53C66.9843 53 66.7943 53.03 66.4143 53.09C66.0343 53.15 65.5343 53.15 64.9143 53.09C64.3143 53.05 63.6643 52.88 62.9643 52.58C62.2843 52.26 61.6443 51.73 61.0443 50.99ZM82.9946 41.15C83.6746 41.09 84.2046 41.12 84.5846 41.24C84.9846 41.34 85.2746 41.48 85.4546 41.66C85.6546 41.84 85.7746 42.01 85.8146 42.17C85.8746 42.31 85.9046 42.38 85.9046 42.38L87.4346 47.96L88.1846 45.77C88.1846 45.77 88.2446 45.65 88.3646 45.41C88.5046 45.17 88.7546 44.93 89.1146 44.69C89.4746 44.45 89.9946 44.34 90.6746 44.36C91.3746 44.36 91.8846 44.47 92.2046 44.69C92.5446 44.91 92.7646 45.13 92.8646 45.35C92.9846 45.57 93.0446 45.68 93.0446 45.68L93.8246 47.9C93.8246 47.9 93.8746 47.72 93.9746 47.36C94.0946 46.98 94.2446 46.51 94.4246 45.95C94.6046 45.37 94.7846 44.79 94.9646 44.21C95.1446 43.63 95.2946 43.12 95.4146 42.68C95.5546 42.22 95.6446 41.93 95.6846 41.81C95.7446 41.61 95.8546 41.41 96.0146 41.21C96.1746 41.01 96.4546 40.85 96.8546 40.73C97.2746 40.59 97.8846 40.55 98.6846 40.61C99.2846 40.65 99.7247 40.75 100.005 40.91C100.285 41.07 100.465 41.25 100.545 41.45C100.625 41.65 100.655 41.82 100.635 41.96C100.615 42.1 100.605 42.17 100.605 42.17C100.605 42.17 100.525 42.38 100.365 42.8C100.225 43.22 100.035 43.76 99.7946 44.42C99.5546 45.08 99.2946 45.79 99.0146 46.55C98.7546 47.31 98.4946 48.04 98.2346 48.74C97.9946 49.44 97.7846 50.04 97.6046 50.54C97.4246 51.02 97.3146 51.31 97.2746 51.41C97.1946 51.61 97.0646 51.84 96.8846 52.1C96.7246 52.34 96.4746 52.55 96.1346 52.73C95.8146 52.91 95.3446 53 94.7246 53C94.1246 53 93.6346 52.93 93.2546 52.79C92.8946 52.65 92.6246 52.51 92.4446 52.37C92.2846 52.23 92.2046 52.16 92.2046 52.16L90.5246 49.64L89.1146 51.86C89.1146 51.86 89.0546 51.96 88.9346 52.16C88.8146 52.34 88.5646 52.53 88.1846 52.73C87.8046 52.91 87.2146 53 86.4146 53C85.8146 53 85.3446 52.91 85.0046 52.73C84.6646 52.55 84.4046 52.35 84.2246 52.13C84.0646 51.91 83.9546 51.71 83.8946 51.53C83.8546 51.35 83.8346 51.26 83.8346 51.26C83.8346 51.26 83.7646 51.04 83.6246 50.6C83.4846 50.16 83.2946 49.6 83.0546 48.92C82.8346 48.24 82.5946 47.53 82.3346 46.79C82.0946 46.03 81.8546 45.32 81.6146 44.66C81.3946 44 81.2146 43.48 81.0746 43.1C80.8946 42.64 80.8646 42.28 80.9846 42.02C81.1246 41.76 81.3246 41.57 81.5846 41.45C81.8446 41.33 82.1146 41.26 82.3946 41.24C82.6746 41.2 82.8746 41.17 82.9946 41.15ZM104.689 40.37C104.689 40.37 104.559 40.37 104.299 40.37C104.039 40.35 103.729 40.29 103.369 40.19C103.029 40.07 102.719 39.86 102.439 39.56C102.159 39.26 102.009 38.81 101.989 38.21C101.969 37.61 102.059 37.17 102.259 36.89C102.459 36.59 102.709 36.39 103.009 36.29C103.309 36.17 103.599 36.11 103.879 36.11C104.159 36.09 104.359 36.07 104.479 36.05C104.599 36.03 104.799 36.05 105.079 36.11C105.359 36.15 105.649 36.26 105.949 36.44C106.249 36.6 106.499 36.85 106.699 37.19C106.899 37.51 106.979 37.94 106.939 38.48C106.899 39 106.759 39.4 106.519 39.68C106.299 39.94 106.039 40.12 105.739 40.22C105.459 40.3 105.209 40.35 104.989 40.37C104.789 40.37 104.689 40.37 104.689 40.37ZM103.639 51.14L102.919 44.3C102.919 44.3 102.869 44.2 102.769 44C102.689 43.78 102.629 43.63 102.589 43.55C102.569 43.49 102.529 43.37 102.469 43.19C102.429 42.99 102.479 42.78 102.619 42.56C102.779 42.34 103.119 42.18 103.639 42.08C104.179 41.98 104.739 41.95 105.319 41.99C105.899 42.03 106.409 42.21 106.849 42.53C107.309 42.83 107.589 43.36 107.689 44.12C107.769 44.68 107.849 45.35 107.929 46.13C108.009 46.89 108.079 47.64 108.139 48.38C108.219 49.1 108.279 49.71 108.319 50.21C108.379 50.69 108.409 50.93 108.409 50.93C108.409 50.93 108.419 51.04 108.439 51.26C108.459 51.46 108.429 51.7 108.349 51.98C108.269 52.24 108.069 52.48 107.749 52.7C107.449 52.9 106.959 53 106.279 53C105.599 53 105.079 52.91 104.719 52.73C104.359 52.53 104.099 52.31 103.939 52.07C103.799 51.83 103.709 51.62 103.669 51.44C103.649 51.24 103.639 51.14 103.639 51.14ZM110.076 36.62C110.056 36.12 110.206 35.72 110.526 35.42C110.846 35.1 111.556 34.91 112.656 34.85C113.396 34.81 113.936 34.9 114.276 35.12C114.616 35.34 114.826 35.57 114.906 35.81C115.006 36.03 115.056 36.14 115.056 36.14L115.236 38.81C115.236 38.81 115.396 38.81 115.716 38.81C116.056 38.81 116.436 38.85 116.856 38.93C117.296 38.99 117.676 39.12 117.996 39.32C118.336 39.52 118.506 39.83 118.506 40.25C118.506 40.67 118.346 40.98 118.026 41.18C117.706 41.38 117.336 41.52 116.916 41.6C116.496 41.66 116.116 41.69 115.776 41.69C115.456 41.69 115.296 41.69 115.296 41.69C115.296 41.69 115.296 41.92 115.296 42.38C115.316 42.82 115.326 43.4 115.326 44.12C115.326 44.82 115.336 45.57 115.356 46.37C115.376 47.17 115.386 47.94 115.386 48.68C115.386 49.4 115.386 50.01 115.386 50.51C115.406 50.99 115.416 51.27 115.416 51.35C115.416 51.49 115.366 51.69 115.266 51.95C115.186 52.21 114.956 52.45 114.576 52.67C114.216 52.89 113.616 53 112.776 53C112.156 53 111.676 52.93 111.336 52.79C110.996 52.63 110.746 52.46 110.586 52.28C110.446 52.08 110.366 51.91 110.346 51.77C110.326 51.61 110.316 51.53 110.316 51.53L110.076 36.62ZM120.162 50.42L119.802 35.6C119.802 35.6 119.802 35.52 119.802 35.36C119.822 35.2 119.892 35.01 120.012 34.79C120.132 34.57 120.342 34.38 120.642 34.22C120.962 34.06 121.422 33.98 122.022 33.98C122.822 33.98 123.412 34.07 123.792 34.25C124.192 34.43 124.452 34.66 124.572 34.94C124.692 35.22 124.742 35.5 124.722 35.78C124.702 35.98 124.692 36.36 124.692 36.92C124.712 37.46 124.722 38.04 124.722 38.66C124.742 39.26 124.752 39.78 124.752 40.22C124.772 40.66 124.782 40.88 124.782 40.88C124.782 40.88 124.982 40.83 125.382 40.73C125.802 40.63 126.342 40.56 127.002 40.52C127.662 40.48 128.362 40.56 129.102 40.76C129.842 40.94 130.542 41.32 131.202 41.9C131.442 42.1 131.632 42.47 131.772 43.01C131.932 43.55 132.052 44.18 132.132 44.9C132.232 45.6 132.302 46.33 132.342 47.09C132.382 47.83 132.402 48.52 132.402 49.16C132.422 49.8 132.422 50.32 132.402 50.72C132.402 51.12 132.402 51.32 132.402 51.32C132.402 51.32 132.402 51.41 132.402 51.59C132.402 51.75 132.352 51.94 132.252 52.16C132.172 52.38 131.992 52.58 131.712 52.76C131.432 52.92 131.002 53 130.422 53C129.662 53 129.142 52.91 128.862 52.73C128.582 52.55 128.432 52.31 128.412 52.01C128.392 51.69 128.382 51.34 128.382 50.96C128.382 50.74 128.372 50.38 128.352 49.88C128.332 49.38 128.312 48.83 128.292 48.23C128.272 47.61 128.252 47.02 128.232 46.46C128.212 45.9 128.192 45.44 128.172 45.08C128.152 44.72 128.142 44.54 128.142 44.54C128.142 44.54 128.122 44.42 128.082 44.18C128.062 43.92 127.962 43.67 127.782 43.43C127.602 43.19 127.302 43.08 126.882 43.1C126.562 43.12 126.292 43.27 126.072 43.55C125.852 43.81 125.672 44.14 125.532 44.54C125.412 44.92 125.322 45.29 125.262 45.65C125.202 45.99 125.172 46.24 125.172 46.4C125.172 46.56 125.172 46.88 125.172 47.36C125.192 47.84 125.202 48.36 125.202 48.92C125.202 49.46 125.202 49.93 125.202 50.33C125.222 50.71 125.232 50.9 125.232 50.9C125.232 50.9 125.222 51.01 125.202 51.23C125.182 51.43 125.102 51.67 124.962 51.95C124.822 52.23 124.572 52.48 124.212 52.7C123.872 52.9 123.372 53 122.712 53C121.952 53 121.382 52.87 121.002 52.61C120.642 52.35 120.402 52.05 120.282 51.71C120.182 51.37 120.132 51.07 120.132 50.81C120.152 50.55 120.162 50.42 120.162 50.42ZM144.981 53C144.241 53 143.681 52.9 143.301 52.7C142.941 52.5 142.701 52.27 142.581 52.01C142.461 51.75 142.401 51.52 142.401 51.32C142.401 51.12 142.401 51.02 142.401 51.02L142.041 38C142.041 38 142.031 37.9 142.011 37.7C141.991 37.5 142.031 37.27 142.131 37.01C142.231 36.73 142.441 36.49 142.761 36.29C143.081 36.07 143.581 35.96 144.261 35.96C145.161 35.94 145.841 36.07 146.301 36.35C146.761 36.61 147.061 36.88 147.201 37.16C147.361 37.42 147.441 37.55 147.441 37.55L150.891 43.82C150.891 43.82 150.971 43.64 151.131 43.28C151.311 42.9 151.521 42.43 151.761 41.87C152.021 41.31 152.281 40.74 152.541 40.16C152.801 39.58 153.031 39.08 153.231 38.66C153.431 38.22 153.561 37.94 153.621 37.82C153.721 37.62 153.901 37.35 154.161 37.01C154.421 36.65 154.791 36.32 155.271 36.02C155.771 35.72 156.421 35.56 157.221 35.54C157.821 35.52 158.281 35.59 158.601 35.75C158.921 35.89 159.141 36.06 159.261 36.26C159.401 36.46 159.481 36.64 159.501 36.8C159.521 36.96 159.531 37.04 159.531 37.04C159.531 37.04 159.531 37.3 159.531 37.82C159.531 38.32 159.531 38.99 159.531 39.83C159.551 40.67 159.561 41.59 159.561 42.59C159.561 43.59 159.561 44.6 159.561 45.62C159.561 46.62 159.561 47.54 159.561 48.38C159.581 49.22 159.591 49.9 159.591 50.42C159.591 50.94 159.591 51.21 159.591 51.23C159.591 51.25 159.581 51.35 159.561 51.53C159.561 51.71 159.491 51.92 159.351 52.16C159.211 52.38 158.961 52.58 158.601 52.76C158.261 52.92 157.751 53 157.071 53C156.391 53 155.871 52.93 155.511 52.79C155.171 52.63 154.931 52.46 154.791 52.28C154.651 52.08 154.571 51.91 154.551 51.77C154.531 51.63 154.521 51.56 154.521 51.56C154.521 51.56 154.521 51.39 154.521 51.05C154.521 50.69 154.521 50.25 154.521 49.73C154.541 49.19 154.551 48.66 154.551 48.14C154.571 47.6 154.581 47.15 154.581 46.79C154.581 46.43 154.581 46.25 154.581 46.25L154.821 41.96L153.261 45.29C153.261 45.29 153.201 45.4 153.081 45.62C152.981 45.84 152.781 46.06 152.481 46.28C152.181 46.5 151.731 46.62 151.131 46.64C150.551 46.66 150.091 46.58 149.751 46.4C149.431 46.2 149.201 46.01 149.061 45.83C148.941 45.63 148.881 45.53 148.881 45.53L146.931 41.96C146.931 41.96 146.941 42.2 146.961 42.68C147.001 43.14 147.041 43.75 147.081 44.51C147.121 45.25 147.161 46.04 147.201 46.88C147.241 47.7 147.271 48.48 147.291 49.22C147.331 49.94 147.361 50.52 147.381 50.96C147.401 51.5 147.291 51.92 147.051 52.22C146.811 52.5 146.531 52.7 146.211 52.82C145.891 52.92 145.601 52.98 145.341 53C145.101 53 144.981 53 144.981 53ZM173.054 43.94C172.994 44.94 172.714 45.75 172.214 46.37C171.714 46.97 171.104 47.43 170.384 47.75C169.684 48.05 168.984 48.26 168.284 48.38C167.584 48.48 166.994 48.53 166.514 48.53C166.054 48.53 165.824 48.53 165.824 48.53C165.944 49.23 166.114 49.73 166.334 50.03C166.554 50.33 166.794 50.5 167.054 50.54C167.334 50.58 167.594 50.56 167.834 50.48C168.074 50.38 168.264 50.27 168.404 50.15C168.564 50.03 168.644 49.97 168.644 49.97C168.644 49.97 168.754 49.88 168.974 49.7C169.194 49.52 169.534 49.35 169.994 49.19C170.474 49.01 171.074 48.92 171.794 48.92C172.614 48.92 173.164 49.03 173.444 49.25C173.744 49.45 173.884 49.69 173.864 49.97C173.864 50.23 173.804 50.47 173.684 50.69C173.584 50.89 173.534 50.99 173.534 50.99C173.534 50.99 173.444 51.09 173.264 51.29C173.104 51.47 172.804 51.69 172.364 51.95C171.924 52.21 171.314 52.45 170.534 52.67C169.754 52.87 168.754 52.98 167.534 53C166.354 53.02 165.364 52.86 164.564 52.52C163.764 52.18 163.104 51.74 162.584 51.2C162.064 50.64 161.664 50.06 161.384 49.46C161.124 48.84 160.934 48.27 160.814 47.75C160.714 47.21 160.664 46.79 160.664 46.49C160.664 46.19 160.684 45.8 160.724 45.32C160.784 44.84 160.914 44.34 161.114 43.82C161.334 43.28 161.664 42.77 162.104 42.29C162.544 41.81 163.144 41.42 163.904 41.12C164.684 40.82 165.674 40.66 166.874 40.64C168.374 40.62 169.544 40.75 170.384 41.03C171.224 41.31 171.834 41.65 172.214 42.05C172.594 42.45 172.824 42.83 172.904 43.19C173.004 43.55 173.054 43.8 173.054 43.94ZM165.404 46.46C166.624 46.36 167.534 46.1 168.134 45.68C168.734 45.26 169.084 44.79 169.184 44.27C169.284 43.75 169.184 43.31 168.884 42.95C168.604 42.57 168.174 42.4 167.594 42.44C167.014 42.46 166.574 42.68 166.274 43.1C165.974 43.5 165.764 43.97 165.644 44.51C165.524 45.03 165.454 45.49 165.434 45.89C165.414 46.27 165.404 46.46 165.404 46.46Z" fill="white"/>
<defs>
<filter id="filter0_n_2009_3808" x="0" y="0" width="344.05" height="97.8008" filterUnits="userSpaceOnUse" color-interpolation-filters="sRGB">
<feFlood flood-opacity="0" result="BackgroundImageFix"/>
<feBlend mode="normal" in="SourceGraphic" in2="BackgroundImageFix" result="shape"/>
<feTurbulence type="fractalNoise" baseFrequency="6.059999942779541 6.059999942779541" stitchTiles="stitch" numOctaves="3" result="noise" seed="4860" />
<feColorMatrix in="noise" type="luminanceToAlpha" result="alphaNoise" />
<feComponentTransfer in="alphaNoise" result="coloredNoise1">
<feFuncA type="discrete" tableValues="0 0 0 0 0 0 0 0 0 0 0 0 1 1 1 1 1 1 1 1 1 1 1 1 1 1 1 1 1 1 1 1 1 1 1 1 1 1 0 0 0 0 0 0 0 0 0 0 0 0 0 0 0 0 0 0 0 0 0 0 0 0 0 0 0 0 0 0 0 0 0 0 0 0 0 0 0 0 0 0 0 0 0 0 0 0 0 0 0 0 0 0 0 0 0 0 0 0 0 0 "/>
</feComponentTransfer>
<feComposite operator="in" in2="shape" in="coloredNoise1" result="noise1Clipped" />
<feFlood flood-color="rgba(255, 255, 255, 0.16)" result="color1Flood" />
<feComposite operator="in" in2="noise1Clipped" in="color1Flood" result="color1" />
<feMerge result="effect1_noise_2009_3808">
<feMergeNode in="shape" />
<feMergeNode in="color1" />
</feMerge>
</filter>
</defs>
</svg>
