<svg width="124" height="120" viewBox="0 0 124 120" fill="none" xmlns="http://www.w3.org/2000/svg">
<g opacity="0.5">
<path d="M45.5679 16.6619C44.7268 7.72375 51.7579 0 60.7355 0C69.5409 0 76.5128 7.44313 75.9376 16.2298L69.8649 109H54.2568L45.5679 16.6619Z" fill="#FDF0E9"/>
<path d="M9.38276 90.2791C4.32302 87.8606 2.39575 81.6447 5.19977 76.788C7.95716 72.0121 14.1566 70.5265 18.7791 73.5341L67.1416 105.001L61.3107 115.1L9.38276 90.2791Z" fill="#FDF0E9"/>
<path d="M113.801 90.2791C118.861 87.8606 120.788 81.6447 117.984 76.788C115.226 72.0121 109.027 70.5265 104.405 73.5341L56.042 105.001L61.8729 115.1L113.801 90.2791Z" fill="#FDF0E9"/>
</g>
</svg>
