<svg width="344" height="188" viewBox="0 0 344 188" fill="none" xmlns="http://www.w3.org/2000/svg">
<rect x="0.5" y="21.173" width="343" height="166" rx="11.5" fill="#FDF0E9"/>
<rect x="0.5" y="21.173" width="343" height="166" rx="11.5" stroke="#28293E" stroke-dasharray="5 5"/>
<rect x="31.7002" y="5.09216" width="73" height="36" rx="5" transform="rotate(-4 31.7002 5.09216)" fill="#47A7FE"/>
<path d="M55.8904 15.8108L55.9942 17.2952L53.0414 17.5017L53.7133 27.1102L51.8937 27.2375L51.2218 17.6289L48.2531 17.8365L48.1493 16.3521L55.8904 15.8108ZM62.3335 26.6518C61.5036 26.7098 60.7404 26.5761 60.044 26.2505C59.3468 25.9143 58.7829 25.4191 58.3522 24.7649C57.9208 24.1001 57.6734 23.3154 57.6102 22.4109C57.5477 21.5171 57.6891 20.7106 58.0345 19.9915C58.3798 19.2723 58.88 18.7027 59.5349 18.2826C60.1899 17.8626 60.9377 17.6232 61.7783 17.5644C62.6189 17.5056 63.3927 17.6386 64.0998 17.9634C64.8068 18.2882 65.3814 18.7827 65.8234 19.4468C66.2655 20.1109 66.5178 20.8899 66.5803 21.7837C66.6428 22.6775 66.4961 23.4844 66.1401 24.2043C65.7841 24.9242 65.2684 25.5003 64.5929 25.9324C63.9273 26.3532 63.1741 26.593 62.3335 26.6518ZM62.223 25.0716C62.6912 25.0389 63.1197 24.8967 63.5084 24.6449C63.9078 24.3925 64.2195 24.0339 64.4436 23.5691C64.6678 23.1043 64.7575 22.5527 64.7129 21.9143C64.6682 21.2758 64.5083 20.747 64.233 20.3279C63.957 19.8981 63.6091 19.5856 63.1891 19.3904C62.7691 19.1952 62.325 19.114 61.8568 19.1468C61.3887 19.1795 60.9602 19.3217 60.5715 19.5735C60.1934 19.8244 59.9029 20.1816 59.7001 20.6449C59.4965 21.0975 59.417 21.643 59.4617 22.2815C59.5279 23.2285 59.8187 23.946 60.334 24.4339C60.8591 24.9104 61.4888 25.123 62.223 25.0716ZM72.5118 25.9401C71.6818 25.9981 70.9186 25.8643 70.2222 25.5388C69.5251 25.2026 68.9612 24.7074 68.5305 24.0532C68.0991 23.3883 67.8517 22.6037 67.7885 21.6992C67.726 20.8054 67.8674 19.9989 68.2127 19.2797C68.5581 18.5605 69.0582 17.9909 69.7132 17.5709C70.3681 17.1508 71.1159 16.9114 71.9565 16.8527C72.7972 16.7939 73.571 16.9269 74.278 17.2517C74.9851 17.5765 75.5596 18.0709 76.0017 18.7351C76.4438 19.3992 76.6961 20.1781 76.7586 21.072C76.8211 21.9658 76.6743 22.7726 76.3184 23.4926C75.9624 24.2125 75.4466 24.7885 74.7711 25.2207C74.1055 25.6415 73.3524 25.8813 72.5118 25.9401ZM72.4013 24.3599C72.8695 24.3272 73.298 24.1849 73.6867 23.9332C74.086 23.6807 74.3978 23.3221 74.6219 22.8574C74.846 22.3926 74.9358 21.841 74.8911 21.2025C74.8465 20.5641 74.6865 20.0353 74.4113 19.6161C74.1353 19.1864 73.7873 18.8739 73.3674 18.6787C72.9474 18.4835 72.5033 18.4023 72.0351 18.435C71.5669 18.4678 71.1385 18.61 70.7498 18.8617C70.3717 19.1127 70.0812 19.4698 69.8784 19.9331C69.6748 20.3858 69.5953 20.9313 69.64 21.5697C69.7062 22.5168 69.9969 23.2342 70.5122 23.7221C71.0374 24.1987 71.6671 24.4113 72.4013 24.3599ZM79.859 13.413L80.6849 25.2242L78.8653 25.3514L78.0394 13.5403L79.859 13.413ZM86.2761 24.9776C85.5844 25.0259 84.9534 24.9471 84.383 24.741C83.8224 24.5236 83.3677 24.2132 83.0187 23.8099C82.669 23.396 82.4649 22.9238 82.4064 22.3932L84.2898 22.2615C84.3477 22.6317 84.5453 22.9333 84.8823 23.1664C85.2293 23.388 85.6475 23.4818 86.137 23.4475C86.6478 23.4118 87.0348 23.2885 87.298 23.0776C87.5712 22.8554 87.697 22.59 87.6754 22.2814C87.6523 21.9515 87.4756 21.7179 87.1452 21.5807C86.8255 21.4426 86.3184 21.3017 85.624 21.1577C84.9517 21.023 84.402 20.885 83.9751 20.7438C83.5482 20.6025 83.1682 20.3671 82.8351 20.0376C82.5126 19.7073 82.3313 19.2548 82.2911 18.6802C82.2583 18.212 82.3669 17.7767 82.6168 17.3743C82.8659 16.9613 83.238 16.6251 83.7332 16.366C84.2389 16.1061 84.827 15.9527 85.4974 15.9058C86.4976 15.8358 87.3188 16.035 87.961 16.5034C88.6132 16.9603 88.991 17.6236 89.0946 18.4932L87.2751 18.6204C87.2156 18.2289 87.034 17.9262 86.7304 17.7122C86.4267 17.4982 86.0301 17.4083 85.5407 17.4425C85.0618 17.476 84.7011 17.5921 84.4583 17.7909C84.2156 17.9896 84.1046 18.238 84.1255 18.5359C84.1419 18.77 84.2407 18.9609 84.4222 19.1086C84.6036 19.2563 84.82 19.3695 85.0714 19.4481C85.3221 19.5161 85.6917 19.6026 86.1802 19.7074C86.8306 19.833 87.3642 19.9721 87.7812 20.1247C88.2081 20.266 88.5824 20.4964 88.9042 20.8161C89.2259 21.1358 89.4118 21.5772 89.4619 22.1404C89.4969 22.6405 89.3898 23.0971 89.1407 23.5102C88.8916 23.9232 88.5194 24.2593 88.0243 24.5185C87.5398 24.7769 86.9571 24.9299 86.2761 24.9776Z" fill="white"/>
<path d="M38.25 90.673C38.25 79.4771 38.25 73.8792 41.7281 70.4011C45.2062 66.923 50.8041 66.923 62 66.923C73.1958 66.923 78.7938 66.923 82.272 70.4011C85.75 73.8792 85.75 79.4771 85.75 90.673C85.75 101.869 85.75 107.467 82.272 110.945C78.7938 114.423 73.1958 114.423 62 114.423C50.8041 114.423 45.2062 114.423 41.7281 110.945C38.25 107.467 38.25 101.869 38.25 90.673Z" stroke="#47A7FE" stroke-width="2.5" stroke-linejoin="round"/>
<path d="M66.2501 95.6734C68.8735 95.6734 71.0002 93.5467 71.0002 90.9233C71.0002 88.2999 68.8735 86.1732 66.2501 86.1732C63.6267 86.1732 61.5 88.2999 61.5 90.9233C61.5 93.5467 63.6267 95.6734 66.2501 95.6734Z" stroke="#47A7FE" stroke-width="2.5" stroke-linejoin="round"/>
<path d="M56.7501 105.173C59.3735 105.173 61.5002 103.047 61.5002 100.423V95.6732H56.7501C54.1267 95.6732 52 97.7998 52 100.423C52 103.047 54.1267 105.173 56.7501 105.173Z" stroke="#47A7FE" stroke-width="2.5" stroke-linejoin="round"/>
<path d="M61.5002 86.1732V95.6734H56.7501C54.1267 95.6734 52 93.5468 52 90.9233C52 88.2998 54.1267 86.1732 56.7501 86.1732H61.5002Z" stroke="#47A7FE" stroke-width="2.5" stroke-linecap="round" stroke-linejoin="round"/>
<path d="M61.5002 76.673V86.1731H56.7501C54.1267 86.1731 52 84.0464 52 81.4231C52 78.7997 54.1267 76.673 56.7501 76.673H61.5002Z" stroke="#47A7FE" stroke-width="2.5" stroke-linecap="round" stroke-linejoin="round"/>
<path d="M61.5 76.673V86.1731H66.2501C68.8735 86.1731 71.0002 84.0464 71.0002 81.4231C71.0002 78.7997 68.8735 76.673 66.2501 76.673H61.5Z" stroke="#47A7FE" stroke-width="2.5" stroke-linecap="round" stroke-linejoin="round"/>
<path d="M44.036 131.521V132.705H39.188V136.465H43.124V137.649H39.188V142.673H37.732V131.521H44.036ZM46.5465 132.481C46.2692 132.481 46.0345 132.385 45.8425 132.193C45.6505 132.001 45.5545 131.766 45.5545 131.489C45.5545 131.212 45.6505 130.977 45.8425 130.785C46.0345 130.593 46.2692 130.497 46.5465 130.497C46.8132 130.497 47.0372 130.593 47.2185 130.785C47.4105 130.977 47.5065 131.212 47.5065 131.489C47.5065 131.766 47.4105 132.001 47.2185 132.193C47.0372 132.385 46.8132 132.481 46.5465 132.481ZM47.2505 133.905V142.673H45.7945V133.905H47.2505ZM53.348 133.761C54.1053 133.761 54.7667 133.926 55.332 134.257C55.908 134.588 56.3347 135.004 56.612 135.505V133.905H58.084V142.865C58.084 143.665 57.9133 144.374 57.572 144.993C57.2307 145.622 56.74 146.113 56.1 146.465C55.4707 146.817 54.7347 146.993 53.892 146.993C52.74 146.993 51.78 146.721 51.012 146.177C50.244 145.633 49.7907 144.892 49.652 143.953H51.092C51.252 144.486 51.5827 144.913 52.084 145.233C52.5853 145.564 53.188 145.729 53.892 145.729C54.692 145.729 55.3427 145.478 55.844 144.977C56.356 144.476 56.612 143.772 56.612 142.865V141.025C56.324 141.537 55.8973 141.964 55.332 142.305C54.7667 142.646 54.1053 142.817 53.348 142.817C52.5693 142.817 51.86 142.625 51.22 142.241C50.5907 141.857 50.0947 141.318 49.732 140.625C49.3693 139.932 49.188 139.142 49.188 138.257C49.188 137.361 49.3693 136.577 49.732 135.905C50.0947 135.222 50.5907 134.694 51.22 134.321C51.86 133.948 52.5693 133.761 53.348 133.761ZM56.612 138.273C56.612 137.612 56.4787 137.036 56.212 136.545C55.9453 136.054 55.5827 135.681 55.124 135.425C54.676 135.158 54.18 135.025 53.636 135.025C53.092 135.025 52.596 135.153 52.148 135.409C51.7 135.665 51.3427 136.038 51.076 136.529C50.8093 137.02 50.676 137.596 50.676 138.257C50.676 138.929 50.8093 139.516 51.076 140.017C51.3427 140.508 51.7 140.886 52.148 141.153C52.596 141.409 53.092 141.537 53.636 141.537C54.18 141.537 54.676 141.409 55.124 141.153C55.5827 140.886 55.9453 140.508 56.212 140.017C56.4787 139.516 56.612 138.934 56.612 138.273ZM71.0885 133.745C71.7712 133.745 72.3792 133.889 72.9125 134.177C73.4458 134.454 73.8672 134.876 74.1765 135.441C74.4858 136.006 74.6405 136.694 74.6405 137.505V142.673H73.2005V137.713C73.2005 136.838 72.9818 136.172 72.5445 135.713C72.1178 135.244 71.5365 135.009 70.8005 135.009C70.0432 135.009 69.4405 135.254 68.9925 135.745C68.5445 136.225 68.3205 136.924 68.3205 137.841V142.673H66.8805V137.713C66.8805 136.838 66.6618 136.172 66.2245 135.713C65.7978 135.244 65.2165 135.009 64.4805 135.009C63.7232 135.009 63.1205 135.254 62.6725 135.745C62.2245 136.225 62.0005 136.924 62.0005 137.841V142.673H60.5445V133.905H62.0005V135.169C62.2885 134.71 62.6725 134.358 63.1525 134.113C63.6432 133.868 64.1818 133.745 64.7685 133.745C65.5045 133.745 66.1552 133.91 66.7205 134.241C67.2858 134.572 67.7072 135.057 67.9845 135.697C68.2298 135.078 68.6352 134.598 69.2005 134.257C69.7658 133.916 70.3952 133.745 71.0885 133.745ZM76.4849 138.257C76.4849 137.361 76.6662 136.577 77.0289 135.905C77.3915 135.222 77.8875 134.694 78.5169 134.321C79.1569 133.948 79.8662 133.761 80.6449 133.761C81.4129 133.761 82.0795 133.926 82.6449 134.257C83.2102 134.588 83.6315 135.004 83.9089 135.505V133.905H85.3809V142.673H83.9089V141.041C83.6209 141.553 83.1889 141.98 82.6129 142.321C82.0475 142.652 81.3862 142.817 80.6289 142.817C79.8502 142.817 79.1462 142.625 78.5169 142.241C77.8875 141.857 77.3915 141.318 77.0289 140.625C76.6662 139.932 76.4849 139.142 76.4849 138.257ZM83.9089 138.273C83.9089 137.612 83.7755 137.036 83.5089 136.545C83.2422 136.054 82.8795 135.681 82.4209 135.425C81.9729 135.158 81.4769 135.025 80.9329 135.025C80.3889 135.025 79.8929 135.153 79.4449 135.409C78.9969 135.665 78.6395 136.038 78.3729 136.529C78.1062 137.02 77.9729 137.596 77.9729 138.257C77.9729 138.929 78.1062 139.516 78.3729 140.017C78.6395 140.508 78.9969 140.886 79.4449 141.153C79.8929 141.409 80.3889 141.537 80.9329 141.537C81.4769 141.537 81.9729 141.409 82.4209 141.153C82.8795 140.886 83.2422 140.508 83.5089 140.017C83.7755 139.516 83.9089 138.934 83.9089 138.273Z" fill="#28293E" fill-opacity="0.7"/>
<path d="M136.25 90.673C136.25 79.4771 136.25 73.8792 139.728 70.4011C143.206 66.923 148.804 66.923 160 66.923C171.196 66.923 176.794 66.923 180.272 70.4011C183.75 73.8792 183.75 79.4771 183.75 90.673C183.75 101.869 183.75 107.467 180.272 110.945C176.794 114.423 171.196 114.423 160 114.423C148.804 114.423 143.206 114.423 139.728 110.945C136.25 107.467 136.25 101.869 136.25 90.673Z" stroke="#EF6D58" stroke-width="2.5" stroke-linejoin="round"/>
<path d="M146 81.673L159.5 99.673M146 99.673L159.5 81.673" stroke="#EF6D58" stroke-width="2.5" stroke-linecap="round" stroke-linejoin="round"/>
<path d="M173 88.423V97.423C173 99.9038 171.837 99.673 169.625 99.673C166.518 99.673 164 97.1545 164 94.048C164 90.9414 166.518 88.423 169.625 88.423H173ZM173 88.423V81.673" stroke="#EF6D58" stroke-width="2.5" stroke-linecap="round" stroke-linejoin="round"/>
<path d="M154.792 137.105L158.216 142.673H156.568L153.896 138.321L151.352 142.673H149.736L153.144 137.105L149.72 131.521H151.352L154.04 135.889L156.6 131.521H158.232L154.792 137.105ZM163.641 131.521C164.858 131.521 165.908 131.75 166.794 132.209C167.69 132.657 168.372 133.302 168.842 134.145C169.322 134.988 169.562 135.98 169.562 137.121C169.562 138.262 169.322 139.254 168.842 140.097C168.372 140.929 167.69 141.569 166.794 142.017C165.908 142.454 164.858 142.673 163.641 142.673H160.17V131.521H163.641ZM163.641 141.473C165.082 141.473 166.18 141.094 166.938 140.337C167.695 139.569 168.074 138.497 168.074 137.121C168.074 135.734 167.69 134.652 166.922 133.873C166.164 133.094 165.071 132.705 163.641 132.705H161.626V141.473H163.641Z" fill="#28293E" fill-opacity="0.7"/>
<path d="M246.25 90.673C246.25 79.4771 246.25 73.8792 249.728 70.4011C253.206 66.923 258.804 66.923 270 66.923C281.196 66.923 286.794 66.923 290.272 70.4011C293.75 73.8792 293.75 79.4771 293.75 90.673C293.75 101.869 293.75 107.467 290.272 110.945C286.794 114.423 281.196 114.423 270 114.423C258.804 114.423 253.206 114.423 249.728 110.945C246.25 107.467 246.25 101.869 246.25 90.673Z" stroke="#47A7FE" stroke-width="2.5" stroke-linejoin="round"/>
<path d="M269.5 99.673L267.551 93.373M267.551 93.373L265.922 88.1055C264.595 83.8172 263.932 81.673 262.75 81.673C261.568 81.673 260.905 83.8172 259.578 88.1055L257.949 93.373M267.551 93.373H257.949M256 99.673L257.949 93.373" stroke="#47A7FE" stroke-width="2.5" stroke-linecap="round" stroke-linejoin="round"/>
<path d="M274 92.6297V95.1731C274 97.6584 276.015 99.6731 278.5 99.6731C280.172 99.6731 281.63 98.7616 282.406 97.4087M274 92.6297V90.6731C274 88.1877 276.015 86.1731 278.5 86.1731C280.985 86.1731 283 88.1877 283 90.6731V92.6297H274Z" stroke="#47A7FE" stroke-width="2.5" stroke-linecap="round" stroke-linejoin="round"/>
<path d="M235.824 140.193H230.96L230.064 142.673H228.528L232.56 131.585H234.24L238.256 142.673H236.72L235.824 140.193ZM235.408 139.009L233.392 133.377L231.376 139.009H235.408ZM243.581 135.105H241.741V142.673H240.285V135.105H239.149V133.905H240.285V133.281C240.285 132.3 240.536 131.585 241.037 131.137C241.549 130.678 242.365 130.449 243.485 130.449V131.665C242.845 131.665 242.392 131.793 242.125 132.049C241.869 132.294 241.741 132.705 241.741 133.281V133.905H243.581V135.105ZM247.055 135.105V140.273C247.055 140.7 247.146 141.004 247.327 141.185C247.508 141.356 247.823 141.441 248.271 141.441H249.343V142.673H248.031C247.22 142.673 246.612 142.486 246.207 142.113C245.802 141.74 245.599 141.126 245.599 140.273V135.105H244.463V133.905H245.599V131.697H247.055V133.905H249.343V135.105H247.055ZM259.107 137.953C259.107 138.23 259.091 138.524 259.059 138.833H252.051C252.104 139.697 252.398 140.374 252.931 140.865C253.475 141.345 254.131 141.585 254.899 141.585C255.528 141.585 256.051 141.441 256.467 141.153C256.894 140.854 257.192 140.46 257.363 139.969H258.931C258.696 140.812 258.227 141.5 257.523 142.033C256.819 142.556 255.944 142.817 254.899 142.817C254.067 142.817 253.32 142.63 252.659 142.257C252.008 141.884 251.496 141.356 251.123 140.673C250.75 139.98 250.563 139.18 250.563 138.273C250.563 137.366 250.744 136.572 251.107 135.889C251.47 135.206 251.976 134.684 252.627 134.321C253.288 133.948 254.046 133.761 254.899 133.761C255.731 133.761 256.467 133.942 257.107 134.305C257.747 134.668 258.238 135.169 258.579 135.809C258.931 136.438 259.107 137.153 259.107 137.953ZM257.603 137.649C257.603 137.094 257.48 136.62 257.235 136.225C256.99 135.82 256.654 135.516 256.227 135.313C255.811 135.1 255.347 134.993 254.835 134.993C254.099 134.993 253.47 135.228 252.947 135.697C252.435 136.166 252.142 136.817 252.067 137.649H257.603ZM262.485 135.329C262.741 134.828 263.104 134.438 263.573 134.161C264.053 133.884 264.634 133.745 265.317 133.745V135.249H264.933C263.301 135.249 262.485 136.134 262.485 137.905V142.673H261.029V133.905H262.485V135.329ZM274.998 137.953C274.998 138.23 274.982 138.524 274.95 138.833H267.942C267.995 139.697 268.288 140.374 268.822 140.865C269.366 141.345 270.022 141.585 270.79 141.585C271.419 141.585 271.942 141.441 272.358 141.153C272.784 140.854 273.083 140.46 273.254 139.969H274.822C274.587 140.812 274.118 141.5 273.414 142.033C272.71 142.556 271.835 142.817 270.79 142.817C269.958 142.817 269.211 142.63 268.55 142.257C267.899 141.884 267.387 141.356 267.014 140.673C266.64 139.98 266.454 139.18 266.454 138.273C266.454 137.366 266.635 136.572 266.998 135.889C267.36 135.206 267.867 134.684 268.518 134.321C269.179 133.948 269.936 133.761 270.79 133.761C271.622 133.761 272.358 133.942 272.998 134.305C273.638 134.668 274.128 135.169 274.47 135.809C274.822 136.438 274.998 137.153 274.998 137.953ZM273.494 137.649C273.494 137.094 273.371 136.62 273.126 136.225C272.88 135.82 272.544 135.516 272.118 135.313C271.702 135.1 271.238 134.993 270.726 134.993C269.99 134.993 269.36 135.228 268.838 135.697C268.326 136.166 268.032 136.817 267.958 137.649H273.494ZM280.488 135.105H278.648V142.673H277.192V135.105H276.056V133.905H277.192V133.281C277.192 132.3 277.442 131.585 277.944 131.137C278.456 130.678 279.272 130.449 280.391 130.449V131.665C279.752 131.665 279.298 131.793 279.032 132.049C278.776 132.294 278.648 132.705 278.648 133.281V133.905H280.488V135.105ZM285.753 135.105H283.913V142.673H282.457V135.105H281.321V133.905H282.457V133.281C282.457 132.3 282.708 131.585 283.209 131.137C283.721 130.678 284.537 130.449 285.657 130.449V131.665C285.017 131.665 284.564 131.793 284.297 132.049C284.041 132.294 283.913 132.705 283.913 133.281V133.905H285.753V135.105ZM295.451 137.953C295.451 138.23 295.435 138.524 295.403 138.833H288.395C288.448 139.697 288.741 140.374 289.275 140.865C289.819 141.345 290.475 141.585 291.243 141.585C291.872 141.585 292.395 141.441 292.811 141.153C293.237 140.854 293.536 140.46 293.707 139.969H295.275C295.04 140.812 294.571 141.5 293.867 142.033C293.163 142.556 292.288 142.817 291.243 142.817C290.411 142.817 289.664 142.63 289.003 142.257C288.352 141.884 287.84 141.356 287.467 140.673C287.093 139.98 286.907 139.18 286.907 138.273C286.907 137.366 287.088 136.572 287.451 135.889C287.813 135.206 288.32 134.684 288.971 134.321C289.632 133.948 290.389 133.761 291.243 133.761C292.075 133.761 292.811 133.942 293.451 134.305C294.091 134.668 294.581 135.169 294.923 135.809C295.275 136.438 295.451 137.153 295.451 137.953ZM293.947 137.649C293.947 137.094 293.824 136.62 293.579 136.225C293.333 135.82 292.997 135.516 292.571 135.313C292.155 135.1 291.691 134.993 291.179 134.993C290.443 134.993 289.813 135.228 289.291 135.697C288.779 136.166 288.485 136.817 288.411 137.649H293.947ZM296.829 138.273C296.829 137.366 297.01 136.577 297.373 135.905C297.735 135.222 298.237 134.694 298.877 134.321C299.527 133.948 300.269 133.761 301.101 133.761C302.178 133.761 303.063 134.022 303.757 134.545C304.461 135.068 304.925 135.793 305.149 136.721H303.581C303.431 136.188 303.138 135.766 302.701 135.457C302.274 135.148 301.741 134.993 301.101 134.993C300.269 134.993 299.597 135.281 299.085 135.857C298.573 136.422 298.317 137.228 298.317 138.273C298.317 139.329 298.573 140.145 299.085 140.721C299.597 141.297 300.269 141.585 301.101 141.585C301.741 141.585 302.274 141.436 302.701 141.137C303.127 140.838 303.421 140.412 303.581 139.857H305.149C304.914 140.753 304.445 141.473 303.741 142.017C303.037 142.55 302.157 142.817 301.101 142.817C300.269 142.817 299.527 142.63 298.877 142.257C298.237 141.884 297.735 141.356 297.373 140.673C297.01 139.99 296.829 139.19 296.829 138.273ZM308.867 135.105V140.273C308.867 140.7 308.958 141.004 309.139 141.185C309.321 141.356 309.635 141.441 310.083 141.441H311.155V142.673H309.843C309.033 142.673 308.425 142.486 308.019 142.113C307.614 141.74 307.411 141.126 307.411 140.273V135.105H306.275V133.905H307.411V131.697H308.867V133.905H311.155V135.105H308.867Z" fill="#28293E" fill-opacity="0.7"/>
</svg>
